<svg width="194.000000" height="57.000000" viewBox="0 0 194 57" fill="none" xmlns="http://www.w3.org/2000/svg" xmlns:xlink="http://www.w3.org/1999/xlink">
	<desc>
			Created with Pixso.
	</desc>
	<defs/>
	<path id="Vector" d="M194 51.28C194 54.44 191.5 57 188.41 57L5.59 57C2.5 57 0 54.44 0 51.28L0 5.72C0 2.56 2.5 0 5.59 0L188.41 0C191.5 0 193.99 2.56 193.99 5.72L194 51.28Z" fill="#242424" fill-opacity="1.000000" fill-rule="nonzero"/>
	<path id="Vector" d="M39.93 7.66C40.18 9.77 39.31 11.86 38.04 13.39C36.71 14.9 34.59 16.06 32.53 15.91C32.26 13.87 33.3 11.71 34.47 10.38C35.8 8.89 38.1 7.74 39.93 7.66ZM46.69 19.87C46.46 20 42.64 22.2 42.69 26.69C42.73 32.11 47.6 33.9 47.66 33.92C47.63 34.05 46.89 36.51 45.07 39C43.55 41.2 41.95 43.35 39.42 43.39C38.21 43.42 37.4 43.08 36.55 42.74C35.67 42.37 34.75 41.99 33.3 41.99C30.46 41.99 29.57 43.35 27.21 43.45C24.8 43.53 22.95 41.1 21.38 38.92C18.22 34.47 15.76 26.38 19.06 20.88C20.65 18.18 23.56 16.44 26.67 16.4C28.04 16.37 29.36 16.88 30.51 17.33C31.39 17.67 32.17 17.97 32.82 17.97C33.38 17.97 34.15 17.68 35.04 17.34C36.44 16.8 38.15 16.14 39.9 16.32C41.1 16.35 44.5 16.78 46.7 19.87L46.69 19.87Z" fill="#FFFFFF" fill-opacity="1.000000" fill-rule="evenodd"/>
	<path id="Vector" d="M76.86 43.13L73.56 43.13L71.75 37.65L65.47 37.65L63.75 43.13L60.53 43.13L66.76 24.46L70.61 24.46L76.86 43.13ZM71.21 35.35L69.57 30.47C69.4 29.98 69.08 28.8 68.6 26.96L68.54 26.96C68.35 27.75 68.04 28.92 67.62 30.47L66.02 35.35L71.21 35.35Z" fill="#FFFFFF" fill-opacity="1.000000" fill-rule="nonzero"/>
	<path id="Vector" d="M92.87 36.24C92.87 38.53 92.23 40.34 90.95 41.67C89.8 42.85 88.37 43.44 86.67 43.44C84.84 43.44 83.52 42.8 82.71 41.53L82.65 41.53L82.65 48.62L79.56 48.62L79.56 34.1C79.56 32.66 79.52 31.19 79.44 29.67L82.17 29.67L82.34 31.81L82.4 31.81C83.43 30.2 85 29.4 87.1 29.4C88.75 29.4 90.12 30.02 91.22 31.28C92.32 32.54 92.87 34.19 92.87 36.24ZM89.71 36.35C89.71 35.04 89.41 33.96 88.8 33.11C88.13 32.22 87.23 31.78 86.1 31.78C85.33 31.78 84.64 32.02 84.02 32.51C83.4 33 82.99 33.64 82.8 34.44C82.7 34.81 82.66 35.11 82.66 35.35L82.66 37.59C82.66 38.57 82.97 39.4 83.59 40.07C84.21 40.75 85.02 41.08 86.01 41.08C87.18 41.08 88.09 40.65 88.74 39.78C89.39 38.91 89.71 37.77 89.71 36.35Z" fill="#FFFFFF" fill-opacity="1.000000" fill-rule="nonzero"/>
	<path id="Vector" d="M108.91 36.24C108.91 38.53 108.27 40.34 106.99 41.67C105.84 42.85 104.41 43.44 102.71 43.44C100.88 43.44 99.56 42.8 98.75 41.53L98.7 41.53L98.7 48.62L95.6 48.62L95.6 34.1C95.6 32.66 95.56 31.19 95.48 29.67L98.21 29.67L98.38 31.81L98.44 31.81C99.47 30.2 101.04 29.4 103.14 29.4C104.79 29.4 106.16 30.02 107.26 31.28C108.36 32.54 108.91 34.19 108.91 36.24ZM105.75 36.35C105.75 35.04 105.45 33.96 104.83 33.11C104.16 32.22 103.27 31.78 102.14 31.78C101.37 31.78 100.68 32.02 100.06 32.51C99.43 33 99.03 33.64 98.84 34.44C98.74 34.81 98.7 35.11 98.7 35.35L98.7 37.59C98.7 38.57 99.01 39.4 99.63 40.07C100.25 40.75 101.06 41.08 102.05 41.08C103.22 41.08 104.13 40.65 104.78 39.78C105.43 38.91 105.75 37.77 105.75 36.35Z" fill="#FFFFFF" fill-opacity="1.000000" fill-rule="nonzero"/>
	<path id="Vector" d="M126.84 37.9C126.84 39.49 126.27 40.78 125.12 41.78C123.86 42.87 122.11 43.41 119.86 43.41C117.78 43.41 116.11 43.02 114.84 42.25L115.56 39.75C116.92 40.55 118.42 40.95 120.04 40.95C121.21 40.95 122.12 40.69 122.77 40.18C123.42 39.68 123.74 38.99 123.74 38.14C123.74 37.39 123.48 36.75 122.94 36.23C122.41 35.71 121.52 35.23 120.27 34.79C116.89 33.57 115.19 31.78 115.19 29.43C115.19 27.9 115.79 26.64 116.97 25.66C118.16 24.68 119.73 24.19 121.71 24.19C123.47 24.19 124.93 24.49 126.1 25.08L125.32 27.52C124.23 26.94 123 26.66 121.62 26.66C120.53 26.66 119.68 26.92 119.07 27.43C118.55 27.89 118.29 28.46 118.29 29.12C118.29 29.86 118.59 30.47 119.18 30.95C119.7 31.39 120.64 31.87 122 32.39C123.66 33.04 124.88 33.79 125.67 34.66C126.45 35.53 126.84 36.61 126.84 37.9Z" fill="#FFFFFF" fill-opacity="1.000000" fill-rule="nonzero"/>
	<path id="Vector" d="M137.09 31.92L133.67 31.92L133.67 38.45C133.67 40.11 134.27 40.95 135.48 40.95C136.03 40.95 136.49 40.9 136.85 40.81L136.94 43.08C136.33 43.3 135.53 43.41 134.53 43.41C133.31 43.41 132.35 43.05 131.66 42.33C130.97 41.61 130.63 40.4 130.63 38.7L130.63 31.91L128.59 31.91L128.59 29.67L130.63 29.67L130.63 27.2L133.67 26.32L133.67 29.67L137.09 29.67L137.09 31.92Z" fill="#FFFFFF" fill-opacity="1.000000" fill-rule="nonzero"/>
	<path id="Vector" d="M152.49 36.29C152.49 38.36 151.88 40.06 150.66 41.39C149.37 42.76 147.67 43.44 145.55 43.44C143.5 43.44 141.87 42.78 140.66 41.47C139.44 40.16 138.84 38.51 138.84 36.51C138.84 34.43 139.46 32.72 140.71 31.39C141.97 30.06 143.65 29.4 145.78 29.4C147.82 29.4 149.47 30.05 150.71 31.36C151.9 32.64 152.49 34.28 152.49 36.29ZM149.28 36.39C149.28 35.15 149 34.08 148.45 33.19C147.8 32.12 146.87 31.58 145.67 31.58C144.42 31.58 143.48 32.12 142.83 33.19C142.27 34.08 141.99 35.17 141.99 36.44C141.99 37.69 142.27 38.75 142.83 39.64C143.5 40.71 144.43 41.25 145.64 41.25C146.82 41.25 147.75 40.7 148.42 39.61C148.99 38.7 149.28 37.63 149.28 36.39Z" fill="#FFFFFF" fill-opacity="1.000000" fill-rule="nonzero"/>
	<path id="Vector" d="M162.56 32.3C162.26 32.25 161.93 32.22 161.59 32.22C160.5 32.22 159.65 32.62 159.06 33.41C158.55 34.11 158.29 35 158.29 36.07L158.29 43.13L155.19 43.13L155.22 33.91C155.22 32.36 155.18 30.95 155.1 29.67L157.8 29.67L157.92 32.25L158 32.25C158.33 31.36 158.84 30.65 159.55 30.12C160.24 29.64 160.99 29.4 161.79 29.4C162.08 29.4 162.33 29.42 162.56 29.45L162.56 32.3Z" fill="#FFFFFF" fill-opacity="1.000000" fill-rule="nonzero"/>
	<path id="Vector" d="M176.42 35.77C176.42 36.3 176.38 36.75 176.31 37.12L167.01 37.12C167.05 38.45 167.5 39.47 168.36 40.17C169.14 40.8 170.16 41.11 171.4 41.11C172.78 41.11 174.03 40.9 175.16 40.48L175.65 42.55C174.33 43.11 172.77 43.38 170.97 43.38C168.81 43.38 167.11 42.77 165.88 41.54C164.65 40.31 164.03 38.67 164.03 36.6C164.03 34.57 164.6 32.88 165.75 31.53C166.95 30.09 168.58 29.37 170.63 29.37C172.64 29.37 174.16 30.09 175.19 31.53C176.01 32.67 176.42 34.09 176.42 35.77ZM173.47 34.99C173.49 34.1 173.28 33.34 172.86 32.69C172.33 31.86 171.5 31.44 170.4 31.44C169.38 31.44 168.56 31.85 167.93 32.66C167.41 33.31 167.11 34.09 167.01 34.99L173.47 34.99L173.47 34.99Z" fill="#FFFFFF" fill-opacity="1.000000" fill-rule="nonzero"/>
	<path id="Vector" d="M70.18 12.98C70.18 14.63 69.67 15.87 68.65 16.71C67.7 17.48 66.35 17.86 64.6 17.86C63.74 17.86 63 17.83 62.37 17.75L62.37 8.73C63.18 8.6 64.06 8.54 65 8.54C66.66 8.54 67.92 8.89 68.76 9.59C69.71 10.38 70.18 11.51 70.18 12.98ZM68.58 13.02C68.58 11.95 68.28 11.13 67.7 10.55C67.11 9.98 66.25 9.7 65.12 9.7C64.64 9.7 64.24 9.73 63.9 9.79L63.9 16.65C64.08 16.68 64.43 16.69 64.93 16.69C66.09 16.69 66.99 16.38 67.62 15.75C68.26 15.13 68.58 14.22 68.58 13.02Z" fill="#FFFFFF" fill-opacity="1.000000" fill-rule="nonzero"/>
	<path id="Vector" d="M78.7 14.42C78.7 15.44 78.4 16.27 77.8 16.92C77.16 17.6 76.33 17.93 75.29 17.93C74.28 17.93 73.48 17.61 72.88 16.96C72.29 16.32 71.99 15.51 71.99 14.53C71.99 13.51 72.3 12.66 72.91 12.01C73.53 11.36 74.36 11.03 75.4 11.03C76.4 11.03 77.21 11.35 77.82 12C78.41 12.62 78.7 13.43 78.7 14.42ZM77.12 14.47C77.12 13.86 76.98 13.33 76.71 12.9C76.39 12.37 75.94 12.11 75.34 12.11C74.73 12.11 74.27 12.37 73.95 12.9C73.67 13.33 73.54 13.87 73.54 14.49C73.54 15.1 73.68 15.63 73.95 16.06C74.28 16.59 74.74 16.86 75.33 16.86C75.91 16.86 76.37 16.59 76.7 16.05C76.98 15.61 77.12 15.08 77.12 14.47Z" fill="#FFFFFF" fill-opacity="1.000000" fill-rule="nonzero"/>
	<path id="Vector" d="M90.11 11.17L87.97 17.78L86.58 17.78L85.69 14.91C85.46 14.19 85.28 13.48 85.14 12.77L85.11 12.77C84.98 13.5 84.79 14.21 84.56 14.91L83.62 17.78L82.2 17.78L80.19 11.17L81.75 11.17L82.53 14.31C82.72 15.06 82.87 15.76 82.99 16.43L83.02 16.43C83.13 15.88 83.32 15.18 83.59 14.33L84.56 11.17L85.8 11.17L86.73 14.26C86.96 15.01 87.14 15.74 87.28 16.44L87.32 16.44C87.43 15.76 87.58 15.03 87.79 14.26L88.62 11.17L90.11 11.17L90.11 11.17Z" fill="#FFFFFF" fill-opacity="1.000000" fill-rule="nonzero"/>
	<path id="Vector" d="M98.01 17.78L96.49 17.78L96.49 13.99C96.49 12.83 96.03 12.24 95.11 12.24C94.65 12.24 94.29 12.4 94.01 12.72C93.73 13.04 93.58 13.42 93.58 13.86L93.58 17.78L92.06 17.78L92.06 13.06C92.06 12.48 92.04 11.85 92 11.16L93.34 11.16L93.41 12.2L93.46 12.2C93.63 11.88 93.9 11.61 94.25 11.4C94.66 11.15 95.12 11.03 95.63 11.03C96.27 11.03 96.8 11.23 97.22 11.63C97.75 12.12 98.01 12.85 98.01 13.82L98.01 17.78Z" fill="#FFFFFF" fill-opacity="1.000000" fill-rule="nonzero"/>
	<path id="Vector" d="M102.21 17.78L100.69 17.78L100.69 8.13L102.21 8.13L102.21 17.78Z" fill="#FFFFFF" fill-opacity="1.000000" fill-rule="nonzero"/>
	<path id="Vector" d="M111.18 14.42C111.18 15.44 110.87 16.27 110.27 16.92C109.64 17.6 108.81 17.93 107.76 17.93C106.76 17.93 105.96 17.61 105.36 16.96C104.76 16.32 104.47 15.51 104.47 14.53C104.47 13.51 104.77 12.66 105.39 12.01C106.01 11.36 106.83 11.03 107.88 11.03C108.88 11.03 109.69 11.35 110.3 12C110.88 12.62 111.18 13.43 111.18 14.42ZM109.59 14.47C109.59 13.86 109.46 13.33 109.19 12.9C108.87 12.37 108.41 12.11 107.82 12.11C107.21 12.11 106.74 12.37 106.43 12.9C106.15 13.33 106.02 13.87 106.02 14.49C106.02 15.1 106.15 15.63 106.43 16.06C106.76 16.59 107.21 16.86 107.81 16.86C108.39 16.86 108.84 16.59 109.17 16.05C109.46 15.61 109.59 15.08 109.59 14.47Z" fill="#FFFFFF" fill-opacity="1.000000" fill-rule="nonzero"/>
	<path id="Vector" d="M118.55 17.78L117.18 17.78L117.07 17.02L117.02 17.02C116.56 17.63 115.89 17.93 115.02 17.93C114.38 17.93 113.85 17.73 113.46 17.33C113.1 16.97 112.92 16.52 112.92 15.99C112.92 15.18 113.27 14.56 113.97 14.14C114.67 13.71 115.66 13.5 116.93 13.51L116.93 13.39C116.93 12.51 116.45 12.08 115.5 12.08C114.83 12.08 114.23 12.24 113.72 12.57L113.41 11.6C114.05 11.22 114.83 11.03 115.76 11.03C117.55 11.03 118.45 11.95 118.45 13.77L118.45 16.2C118.45 16.87 118.48 17.39 118.55 17.78ZM116.96 15.51L116.96 14.49C115.29 14.46 114.45 14.91 114.45 15.82C114.45 16.17 114.54 16.42 114.74 16.6C114.93 16.77 115.18 16.86 115.48 16.86C115.82 16.86 116.13 16.75 116.41 16.55C116.7 16.34 116.87 16.09 116.94 15.77C116.96 15.7 116.96 15.61 116.96 15.51Z" fill="#FFFFFF" fill-opacity="1.000000" fill-rule="nonzero"/>
	<path id="Vector" d="M127.2 17.78L125.85 17.78L125.78 16.72L125.74 16.72C125.3 17.53 124.57 17.93 123.53 17.93C122.71 17.93 122.02 17.62 121.48 16.99C120.93 16.37 120.66 15.55 120.66 14.56C120.66 13.49 120.96 12.62 121.55 11.96C122.12 11.34 122.83 11.03 123.66 11.03C124.58 11.03 125.23 11.33 125.59 11.93L125.62 11.93L125.62 8.13L127.15 8.13L127.15 16C127.15 16.64 127.16 17.24 127.2 17.78ZM125.62 14.99L125.62 13.89C125.62 13.7 125.61 13.54 125.58 13.43C125.49 13.07 125.31 12.78 125.03 12.54C124.75 12.3 124.4 12.18 124.01 12.18C123.44 12.18 123 12.39 122.67 12.83C122.35 13.27 122.18 13.82 122.18 14.5C122.18 15.16 122.34 15.69 122.65 16.09C122.98 16.53 123.42 16.75 123.98 16.75C124.48 16.75 124.88 16.57 125.18 16.2C125.48 15.87 125.62 15.46 125.62 14.99Z" fill="#FFFFFF" fill-opacity="1.000000" fill-rule="nonzero"/>
	<path id="Vector" d="M140.22 14.42C140.22 15.44 139.92 16.27 139.32 16.92C138.69 17.6 137.86 17.93 136.81 17.93C135.81 17.93 135.01 17.61 134.41 16.96C133.81 16.32 133.52 15.51 133.52 14.53C133.52 13.51 133.82 12.66 134.44 12.01C135.05 11.36 135.88 11.03 136.93 11.03C137.93 11.03 138.74 11.35 139.35 12C139.93 12.62 140.22 13.43 140.22 14.42ZM138.65 14.47C138.65 13.86 138.51 13.33 138.24 12.9C137.92 12.37 137.46 12.11 136.87 12.11C136.26 12.11 135.8 12.37 135.47 12.9C135.2 13.33 135.07 13.87 135.07 14.49C135.07 15.1 135.2 15.63 135.47 16.06C135.8 16.59 136.26 16.86 136.86 16.86C137.44 16.86 137.89 16.59 138.22 16.05C138.5 15.61 138.65 15.08 138.65 14.47Z" fill="#FFFFFF" fill-opacity="1.000000" fill-rule="nonzero"/>
	<path id="Vector" d="M148.41 17.78L146.89 17.78L146.89 13.99C146.89 12.83 146.43 12.24 145.51 12.24C145.06 12.24 144.69 12.4 144.41 12.72C144.13 13.04 143.99 13.42 143.99 13.86L143.99 17.78L142.46 17.78L142.46 13.06C142.46 12.48 142.45 11.85 142.41 11.16L143.75 11.16L143.82 12.2L143.86 12.2C144.04 11.88 144.3 11.61 144.65 11.4C145.06 11.15 145.52 11.03 146.03 11.03C146.67 11.03 147.2 11.23 147.62 11.63C148.15 12.12 148.41 12.85 148.41 13.82L148.41 17.78Z" fill="#FFFFFF" fill-opacity="1.000000" fill-rule="nonzero"/>
	<path id="Vector" d="M158.66 12.27L156.99 12.27L156.99 15.48C156.99 16.3 157.28 16.71 157.87 16.71C158.15 16.71 158.37 16.68 158.55 16.64L158.59 17.75C158.29 17.86 157.89 17.92 157.41 17.92C156.81 17.92 156.34 17.74 156 17.39C155.66 17.03 155.49 16.44 155.49 15.6L155.49 12.27L154.49 12.27L154.49 11.17L155.49 11.17L155.49 9.96L156.98 9.52L156.98 11.17L158.66 11.17L158.66 12.27L158.66 12.27Z" fill="#FFFFFF" fill-opacity="1.000000" fill-rule="nonzero"/>
	<path id="Vector" d="M166.73 17.78L165.2 17.78L165.2 14.02C165.2 12.84 164.74 12.24 163.82 12.24C163.12 12.24 162.63 12.59 162.37 13.27C162.32 13.42 162.3 13.59 162.3 13.8L162.3 17.78L160.78 17.78L160.78 8.13L162.3 8.13L162.3 12.12L162.33 12.12C162.81 11.39 163.49 11.03 164.38 11.03C165.01 11.03 165.54 11.23 165.95 11.63C166.47 12.13 166.73 12.87 166.73 13.85L166.73 17.78Z" fill="#FFFFFF" fill-opacity="1.000000" fill-rule="nonzero"/>
	<path id="Vector" d="M175.04 14.16C175.04 14.43 175.02 14.65 174.99 14.83L170.42 14.83C170.44 15.48 170.66 15.98 171.08 16.33C171.47 16.63 171.96 16.79 172.57 16.79C173.25 16.79 173.87 16.68 174.42 16.48L174.66 17.5C174.01 17.77 173.25 17.9 172.36 17.9C171.3 17.9 170.46 17.6 169.86 17C169.25 16.4 168.95 15.59 168.95 14.57C168.95 13.57 169.23 12.74 169.8 12.08C170.39 11.37 171.18 11.02 172.19 11.02C173.18 11.02 173.93 11.37 174.43 12.08C174.84 12.64 175.04 13.34 175.04 14.16ZM173.59 13.78C173.6 13.35 173.5 12.97 173.29 12.65C173.03 12.24 172.63 12.04 172.08 12.04C171.58 12.04 171.18 12.24 170.87 12.64C170.62 12.96 170.47 13.34 170.42 13.78L173.59 13.78Z" fill="#FFFFFF" fill-opacity="1.000000" fill-rule="nonzero"/>
</svg>
