<svg width="196.000000" height="57.000000" viewBox="0 0 196 57" fill="none" xmlns="http://www.w3.org/2000/svg" xmlns:xlink="http://www.w3.org/1999/xlink">
	<desc>
			Created with Pixso.
	</desc>
	<defs>
		<linearGradient x1="31.649710" y1="44.588921" x2="7.284172" y2="20.673990" id="paint_linear_63_1830_0" gradientUnits="userSpaceOnUse">
			<stop stop-color="#00A0FF"/>
			<stop offset="0.006600" stop-color="#00A1FF"/>
			<stop offset="0.260100" stop-color="#00BEFF"/>
			<stop offset="0.512200" stop-color="#00D2FF"/>
			<stop offset="0.760400" stop-color="#00DFFF"/>
			<stop offset="1.000000" stop-color="#00E3FF"/>
		</linearGradient>
		<linearGradient x1="49.122444" y1="28.497784" x2="13.992130" y2="28.497784" id="paint_linear_63_1832_0" gradientUnits="userSpaceOnUse">
			<stop stop-color="#FFE000"/>
			<stop offset="0.408700" stop-color="#FFBD00"/>
			<stop offset="0.775400" stop-color="#FFA500"/>
			<stop offset="1.000000" stop-color="#FF9C00"/>
		</linearGradient>
		<linearGradient x1="36.045197" y1="25.228493" x2="3.003510" y2="-7.202087" id="paint_linear_63_1834_0" gradientUnits="userSpaceOnUse">
			<stop stop-color="#FF3A44"/>
			<stop offset="1.000000" stop-color="#C31162"/>
		</linearGradient>
		<linearGradient x1="10.594669" y1="56.748928" x2="25.349258" y2="42.267357" id="paint_linear_63_1836_0" gradientUnits="userSpaceOnUse">
			<stop stop-color="#32A071"/>
			<stop offset="0.068500" stop-color="#2DA771"/>
			<stop offset="0.476200" stop-color="#15CF74"/>
			<stop offset="0.800900" stop-color="#06E775"/>
			<stop offset="1.000000" stop-color="#00F076"/>
		</linearGradient>
	</defs>
	<path id="path14" d="M188.74 57L7.25 57C3.26 57 0 53.79 0 49.87L0 7.12C0 3.2 3.26 0 7.25 0L188.74 0C192.73 0 196 3.2 196 7.12L196 49.87C196 53.79 192.73 57 188.74 57Z" fill="#242424" fill-opacity="1.000000" fill-rule="nonzero"/>
	<path id="path20" d="M68.84 14.59C68.84 15.78 68.48 16.74 67.76 17.45C66.94 18.29 65.87 18.71 64.56 18.71C63.3 18.71 62.23 18.28 61.35 17.43C60.47 16.57 60.03 15.51 60.03 14.25C60.03 12.98 60.47 11.92 61.35 11.07C62.23 10.21 63.3 9.78 64.56 9.78C65.18 9.78 65.78 9.9 66.34 10.14C66.91 10.38 67.37 10.7 67.7 11.09L66.95 11.84C66.36 11.17 65.57 10.84 64.56 10.84C63.64 10.84 62.85 11.15 62.17 11.78C61.51 12.42 61.17 13.24 61.17 14.25C61.17 15.25 61.51 16.08 62.17 16.72C62.85 17.34 63.64 17.66 64.56 17.66C65.53 17.66 66.34 17.34 66.99 16.71C67.41 16.29 67.65 15.71 67.72 14.98L64.56 14.98L64.56 13.95L68.77 13.95C68.82 14.17 68.84 14.38 68.84 14.59Z" fill="#FFFFFF" fill-opacity="1.000000" fill-rule="nonzero"/>
	<path id="path24" d="M75.53 11.02L71.57 11.02L71.57 13.73L75.14 13.73L75.14 14.76L71.57 14.76L71.57 17.47L75.53 17.47L75.53 18.52L70.45 18.52L70.45 9.97L75.53 9.97L75.53 11.02Z" fill="#FFFFFF" fill-opacity="1.000000" fill-rule="nonzero"/>
	<path id="path28" d="M80.25 18.52L79.13 18.52L79.13 11.02L76.7 11.02L76.7 9.97L82.68 9.97L82.68 11.02L80.25 11.02L80.25 18.52Z" fill="#FFFFFF" fill-opacity="1.000000" fill-rule="nonzero"/>
	<path id="path32" d="M87.01 18.52L87.01 9.97L88.13 9.97L88.13 18.52L87.01 18.52Z" fill="#FFFFFF" fill-opacity="1.000000" fill-rule="nonzero"/>
	<path id="path36" d="M93.1 18.52L91.98 18.52L91.98 11.02L89.55 11.02L89.55 9.97L95.54 9.97L95.54 11.02L93.1 11.02L93.1 18.52Z" fill="#FFFFFF" fill-opacity="1.000000" fill-rule="nonzero"/>
	<path id="path40" d="M106.86 17.42C106.01 18.28 104.94 18.71 103.67 18.71C102.4 18.71 101.33 18.28 100.48 17.42C99.62 16.56 99.19 15.5 99.19 14.25C99.19 12.99 99.62 11.94 100.48 11.07C101.33 10.21 102.4 9.78 103.67 9.78C104.94 9.78 106 10.21 106.86 11.08C107.72 11.95 108.15 13 108.15 14.25C108.15 15.5 107.72 16.56 106.86 17.42ZM101.31 16.7C101.95 17.34 102.74 17.66 103.67 17.66C104.6 17.66 105.4 17.34 106.04 16.7C106.68 16.06 107.01 15.24 107.01 14.25C107.01 13.25 106.68 12.43 106.04 11.79C105.4 11.15 104.6 10.83 103.67 10.83C102.74 10.83 101.95 11.15 101.31 11.79C100.66 12.43 100.33 13.25 100.33 14.25C100.33 15.24 100.66 16.06 101.31 16.7Z" fill="#FFFFFF" fill-opacity="1.000000" fill-rule="nonzero"/>
	<path id="path44" d="M109.72 18.52L109.72 9.97L111.08 9.97L115.31 16.62L115.36 16.62L115.31 14.98L115.31 9.97L116.43 9.97L116.43 18.52L115.27 18.52L110.83 11.54L110.78 11.54L110.83 13.19L110.83 18.52L109.72 18.52Z" fill="#FFFFFF" fill-opacity="1.000000" fill-rule="nonzero"/>
	<path id="path46" d="M98.92 30.99C95.51 30.99 92.72 33.54 92.72 37.05C92.72 40.54 95.51 43.11 98.92 43.11C102.33 43.11 105.12 40.54 105.12 37.05C105.12 33.54 102.33 30.99 98.92 30.99ZM98.92 40.73C97.05 40.73 95.44 39.21 95.44 37.05C95.44 34.87 97.05 33.38 98.92 33.38C100.79 33.38 102.41 34.87 102.41 37.05C102.41 39.21 100.79 40.73 98.92 40.73ZM85.4 30.99C81.98 30.99 79.2 33.54 79.2 37.05C79.2 40.54 81.98 43.11 85.4 43.11C88.81 43.11 91.59 40.54 91.59 37.05C91.59 33.54 88.81 30.99 85.4 30.99ZM85.4 40.73C83.53 40.73 81.91 39.21 81.91 37.05C81.91 34.87 83.53 33.38 85.4 33.38C87.27 33.38 88.88 34.87 88.88 37.05C88.88 39.21 87.27 40.73 85.4 40.73ZM69.31 32.85L69.31 35.43L75.58 35.43C75.4 36.87 74.91 37.92 74.15 38.66C73.24 39.55 71.81 40.54 69.31 40.54C65.46 40.54 62.44 37.49 62.44 33.7C62.44 29.91 65.46 26.86 69.31 26.86C71.4 26.86 72.91 27.66 74.03 28.7L75.88 26.88C74.32 25.41 72.23 24.29 69.31 24.29C64.02 24.29 59.58 28.51 59.58 33.7C59.58 38.89 64.02 43.11 69.31 43.11C72.17 43.11 74.32 42.19 76 40.47C77.73 38.77 78.27 36.39 78.27 34.46C78.27 33.86 78.22 33.31 78.13 32.85L69.31 32.85ZM135.09 34.85C134.58 33.49 133.01 30.99 129.8 30.99C126.63 30.99 123.98 33.45 123.98 37.05C123.98 40.45 126.6 43.11 130.11 43.11C132.95 43.11 134.58 41.42 135.25 40.43L133.15 39.05C132.45 40.06 131.49 40.73 130.11 40.73C128.73 40.73 127.75 40.11 127.12 38.89L135.38 35.54L135.09 34.85ZM126.67 36.87C126.6 34.53 128.52 33.33 129.9 33.33C130.97 33.33 131.89 33.86 132.19 34.62L126.67 36.87ZM119.96 42.75L122.67 42.75L122.67 24.93L119.96 24.93L119.96 42.75ZM115.51 32.34L115.42 32.34C114.81 31.63 113.65 30.99 112.17 30.99C109.08 30.99 106.25 33.66 106.25 37.07C106.25 40.47 109.08 43.11 112.17 43.11C113.65 43.11 114.81 42.47 115.42 41.74L115.51 41.74L115.51 42.61C115.51 44.92 114.25 46.17 112.22 46.17C110.56 46.17 109.53 44.99 109.1 44L106.74 44.97C107.42 46.58 109.23 48.56 112.22 48.56C115.4 48.56 118.09 46.72 118.09 42.24L118.09 31.36L115.51 31.36L115.51 32.34ZM112.41 40.73C110.54 40.73 108.97 39.19 108.97 37.07C108.97 34.94 110.54 33.38 112.41 33.38C114.25 33.38 115.7 34.94 115.7 37.07C115.7 39.19 114.25 40.73 112.41 40.73ZM147.8 24.93L141.31 24.93L141.31 42.75L144.02 42.75L144.02 36L147.8 36C150.81 36 153.76 33.86 153.76 30.46C153.76 27.07 150.8 24.93 147.8 24.93ZM147.87 33.52L144.02 33.52L144.02 27.41L147.87 27.41C149.89 27.41 151.05 29.06 151.05 30.46C151.05 31.84 149.89 33.52 147.87 33.52ZM164.61 30.96C162.66 30.96 160.62 31.81 159.78 33.69L162.19 34.67C162.7 33.69 163.66 33.37 164.66 33.37C166.07 33.37 167.49 34.19 167.51 35.66L167.51 35.84C167.02 35.56 165.97 35.15 164.68 35.15C162.09 35.15 159.46 36.55 159.46 39.16C159.46 41.55 161.58 43.09 163.96 43.09C165.78 43.09 166.79 42.28 167.42 41.34L167.51 41.34L167.51 42.72L170.13 42.72L170.13 35.88C170.13 32.73 167.72 30.96 164.61 30.96ZM164.29 40.72C163.4 40.72 162.17 40.29 162.17 39.21C162.17 37.83 163.7 37.3 165.04 37.3C166.23 37.3 166.79 37.56 167.51 37.9C167.3 39.55 165.85 40.72 164.29 40.72ZM179.65 31.35L176.54 39.07L176.45 39.07L173.23 31.35L170.31 31.35L175.15 42.14L172.39 48.14L175.22 48.14L182.67 31.35L179.65 31.35ZM155.25 42.75L157.96 42.75L157.96 24.93L155.25 24.93L155.25 42.75Z" fill="#FFFFFF" fill-opacity="1.000000" fill-rule="nonzero"/>
	<path id="path64" d="M15.14 10.74C14.72 11.18 14.47 11.86 14.47 12.74L14.47 44.26C14.47 45.14 14.72 45.82 15.14 46.26L15.25 46.36L33.24 28.7L33.24 28.29L15.25 10.63L15.14 10.74Z" fill="url(#paint_linear_63_1830_0)" fill-opacity="1.000000" fill-rule="nonzero"/>
	<path id="path78" d="M39.23 34.59L33.24 28.7L33.24 28.29L39.24 22.4L39.37 22.48L46.48 26.44C48.51 27.57 48.51 29.42 46.48 30.55L39.37 34.51L39.23 34.59Z" fill="url(#paint_linear_63_1832_0)" fill-opacity="1.000000" fill-rule="nonzero"/>
	<path id="path88" d="M39.37 34.51L33.24 28.5L15.15 46.26C15.82 46.95 16.92 47.04 18.16 46.34L39.37 34.51Z" fill="url(#paint_linear_63_1834_0)" fill-opacity="1.000000" fill-rule="nonzero"/>
	<path id="path104" d="M39.37 22.48L18.16 10.65C16.92 9.96 15.82 10.04 15.15 10.74L33.24 28.5L39.37 22.48Z" fill="url(#paint_linear_63_1836_0)" fill-opacity="1.000000" fill-rule="nonzero"/>
</svg>
