<svg width="156.364258" height="51.833252" viewBox="0 0 156.364 51.8333" fill="none" xmlns="http://www.w3.org/2000/svg" xmlns:xlink="http://www.w3.org/1999/xlink">
	<desc>
			Created with Pixso.
	</desc>
	<defs/>
	<rect id="Frame 1" rx="0.000000" width="142.253540" height="34.843517" transform="translate(13.966736 8.494812)" fill="#FFFFFF" fill-opacity="0"/>
	<path id="budss" d="M50.69 12.66L50.69 39.41L55.49 39.41L55.49 37.79Q56.2 38.49 57.12 38.97Q57.29 39.06 57.46 39.13Q58.88 39.78 60.6 39.78Q62.43 39.78 63.98 39.12Q64.53 38.88 65.04 38.56Q65.77 38.11 66.39 37.53Q67.42 36.56 68.13 35.24Q68.27 34.98 68.39 34.72Q69.26 32.81 69.26 30.5Q69.26 27.99 68.26 25.98Q68.2 25.85 68.13 25.73Q67.41 24.38 66.35 23.39Q65.75 22.83 65.04 22.39Q64.53 22.07 63.98 21.84Q62.43 21.17 60.6 21.17Q58.93 21.17 57.53 21.78Q57.34 21.86 57.16 21.95Q56.24 22.41 55.53 23.08L55.53 12.66L50.69 12.66ZM104.63 39.41L109.44 39.41L109.44 12.66L104.59 12.66L104.59 23.08Q103.89 22.41 102.98 21.95Q102.97 21.94 102.95 21.94Q101.43 21.17 99.52 21.17Q97.54 21.17 95.91 21.93Q95.48 22.14 95.07 22.39Q94.42 22.8 93.86 23.31Q92.75 24.32 92 25.73Q91.93 25.85 91.87 25.98Q90.87 27.99 90.87 30.5Q90.87 32.81 91.74 34.72Q91.86 34.98 92 35.24Q92.71 36.56 93.74 37.53Q94.36 38.11 95.09 38.56Q95.62 38.9 96.2 39.14Q97.72 39.78 99.52 39.78Q101.24 39.78 102.66 39.13Q102.83 39.06 103 38.97Q103.93 38.48 104.63 37.79L104.63 39.41ZM118.41 39.72Q119.14 39.82 119.88 39.82Q123.13 39.82 125.02 38.28Q125.77 37.67 126.22 36.89Q126.91 35.71 126.91 34.12Q126.91 32.49 126.26 31.46Q125.87 30.84 125.34 30.36Q124.99 30.04 124.59 29.79Q123.92 29.38 123.21 29.09Q122.83 28.93 122.44 28.82Q121.32 28.46 120.28 28.18Q119.25 27.9 118.6 27.53Q118.21 27.31 118.06 26.98Q117.96 26.76 117.96 26.49Q117.96 26.27 118.04 26.08Q118.17 25.78 118.52 25.57Q119.09 25.24 120.17 25.24Q121.16 25.24 122.03 25.55Q122.2 25.62 122.37 25.69Q123.39 26.13 124.21 27.13L127.12 24.21Q126.54 23.45 125.82 22.87Q125.06 22.27 124.14 21.88Q122.35 21.09 120.13 21.09Q118.03 21.09 116.47 21.8Q115.13 22.41 114.31 23.44Q114.19 23.6 114.08 23.77Q113.95 23.96 113.85 24.16Q113.25 25.28 113.25 26.72Q113.25 28.35 113.9 29.37Q114.29 29.98 114.82 30.44Q115.17 30.74 115.58 30.97Q116.14 31.27 116.72 31.51Q117.22 31.72 117.75 31.89Q118.88 32.23 119.91 32.51Q120.95 32.79 121.6 33.2Q121.94 33.41 122.11 33.73Q122.25 34 122.25 34.34Q122.25 34.65 122.12 34.89Q121.97 35.17 121.63 35.35Q121.02 35.67 119.83 35.67Q118.36 35.67 117.13 35.16Q116.82 35.02 116.52 34.86Q115.68 34.37 114.99 33.6L112.1 36.53Q112.22 36.66 112.33 36.79Q113.15 37.65 114.22 38.28Q115.44 39.01 116.9 39.41Q117.65 39.62 118.41 39.72ZM134.84 39.72Q135.57 39.82 136.31 39.82Q139.56 39.82 141.45 38.28Q142.2 37.67 142.65 36.89Q143.34 35.71 143.34 34.12Q143.34 32.49 142.68 31.46Q142.29 30.84 141.77 30.36Q141.42 30.04 141.01 29.79Q140.35 29.38 139.63 29.09Q139.26 28.93 138.87 28.82Q137.74 28.46 136.7 28.18Q135.67 27.9 135.02 27.53Q134.64 27.31 134.49 26.98Q134.38 26.76 134.38 26.49Q134.38 26.27 134.47 26.08Q134.6 25.78 134.95 25.57Q135.52 25.24 136.6 25.24Q137.58 25.24 138.46 25.55Q138.63 25.62 138.8 25.69Q139.82 26.13 140.63 27.13L143.55 24.21Q142.97 23.45 142.25 22.87Q141.49 22.27 140.57 21.88Q138.78 21.09 136.56 21.09Q134.46 21.09 132.9 21.8Q131.55 22.41 130.74 23.44Q130.62 23.6 130.51 23.77Q130.38 23.96 130.27 24.16Q129.68 25.28 129.68 26.72Q129.68 28.35 130.33 29.37Q130.72 29.98 131.25 30.44Q131.6 30.74 132.01 30.97Q132.56 31.27 133.15 31.51Q133.65 31.72 134.17 31.89Q135.3 32.23 136.33 32.51Q137.37 32.79 138.02 33.2Q138.37 33.41 138.53 33.73Q138.67 34 138.67 34.34Q138.67 34.65 138.55 34.89Q138.39 35.17 138.06 35.35Q137.45 35.67 136.26 35.67Q134.79 35.67 133.56 35.16Q133.25 35.02 132.95 34.86Q132.1 34.37 131.42 33.6L128.53 36.53Q128.64 36.66 128.76 36.79Q129.58 37.65 130.64 38.28Q131.86 39.01 133.33 39.41Q134.07 39.62 134.84 39.72ZM75.89 38.8Q77.71 39.78 80.06 39.78Q82.43 39.78 84.26 38.81Q85.3 38.25 86.08 37.44Q86.67 36.82 87.11 36.05Q88.13 34.27 88.13 31.91L88.13 21.54L83.28 21.54L83.28 31.79Q83.28 33.4 82.49 34.31Q82.46 34.35 82.43 34.38Q82.24 34.58 82.03 34.74Q81.25 35.3 80.06 35.3Q79.07 35.3 78.32 34.9Q78.03 34.73 77.79 34.5Q77.43 34.17 77.21 33.69Q76.84 32.9 76.84 31.79L76.84 21.54L71.96 21.54L71.96 31.91Q71.96 34.07 72.85 35.76Q72.92 35.89 73 36.02Q73.46 36.81 74.09 37.45Q74.85 38.24 75.86 38.79Q75.87 38.8 75.89 38.8ZM61.97 34.79Q61.02 35.3 59.78 35.3Q58.65 35.3 57.73 34.86Q57.57 34.79 57.42 34.7Q56.96 34.43 56.59 34.07Q56.13 33.61 55.8 33Q55.23 31.91 55.23 30.46Q55.23 29.05 55.8 27.96Q56.17 27.26 56.72 26.76Q57.03 26.48 57.4 26.26Q57.54 26.18 57.68 26.1Q58.6 25.65 59.75 25.65Q60.91 25.65 61.84 26.11Q61.98 26.18 62.12 26.26Q62.55 26.51 62.91 26.85Q63.39 27.32 63.72 27.96Q64.3 29.05 64.3 30.46Q64.3 31.91 63.72 33Q63.39 33.64 62.89 34.12Q62.55 34.45 62.13 34.7Q62.05 34.74 61.97 34.79ZM102.72 34.7Q101.71 35.3 100.34 35.3Q99.36 35.3 98.52 34.95Q98.26 34.84 98.01 34.7Q97.58 34.44 97.23 34.1Q96.74 33.63 96.4 33Q95.83 31.91 95.83 30.46Q95.83 29.05 96.4 27.98Q96.74 27.35 97.22 26.88Q97.57 26.54 97.99 26.28Q98.08 26.22 98.19 26.16Q99.14 25.65 100.37 25.65Q101.58 25.65 102.52 26.14Q102.62 26.2 102.72 26.26Q103.1 26.49 103.42 26.78Q103.96 27.27 104.31 27.96Q104.89 29.05 104.89 30.46Q104.89 31.91 104.31 33Q103.97 33.64 103.48 34.12Q103.14 34.45 102.72 34.7L102.72 34.7Z" fill="#FFFFFF" fill-opacity="1.000000" fill-rule="evenodd"/>
	<rect id="Frame 2" rx="0.000000" width="51.545372" height="51.545372" transform="translate(0.143982 0.143982)" fill="#FFFFFF" fill-opacity="0"/>
	<g opacity="0.700000">
		<path id="Vector 269" d="M25.38 26.25L22.13 26.29C18.27 26.34 15.1 23.26 15.04 19.39C14.99 15.53 18.08 12.36 21.94 12.31L37.98 12.09" stroke="#FFAA4C" stroke-opacity="1.000000" stroke-width="8.444121" stroke-linecap="round"/>
	</g>
	<g opacity="0.700000">
		<path id="Vector 270" d="M36.57 40.4L20.51 40.35C16.66 40.34 13.54 37.21 13.55 33.35C13.56 29.5 16.68 26.38 20.53 26.38L25.5 26.38" stroke="#2FDBBC" stroke-opacity="1.000000" stroke-width="8.444121" stroke-linecap="round"/>
	</g>
	<g opacity="0.700000">
		<path id="Vector 275" d="M36.67 40.26L26.42 27.8C25.5 26.68 25.56 25.04 26.56 23.99L37.91 12.06" stroke="#A64CED" stroke-opacity="1.000000" stroke-width="8.444121" stroke-linecap="round"/>
	</g>
</svg>
