<svg width="79.530518" height="79.530518" viewBox="0 0 79.5305 79.5305" fill="none" xmlns="http://www.w3.org/2000/svg" xmlns:xlink="http://www.w3.org/1999/xlink">
	<desc>
			Created with Pixso.
	</desc>
	<defs/>
	<path id="Star 1" d="M28.63 25.67C28.12 27.04 27.04 28.12 25.67 28.63L8.26 35.07C3.91 36.68 3.91 42.84 8.26 44.45L25.67 50.89C27.04 51.4 28.12 52.48 28.63 53.85L35.07 71.26C36.68 75.61 42.84 75.61 44.45 71.26L50.89 53.85C51.4 52.48 52.48 51.4 53.85 50.89L71.26 44.45C75.61 42.84 75.61 36.68 71.26 35.07L53.85 28.63C52.48 28.12 51.4 27.04 50.89 25.67L44.45 8.26C42.84 3.91 36.68 3.91 35.07 8.26L28.63 25.67Z" stroke="#FFAA4C" stroke-opacity="1.000000" stroke-width="10.000000"/>
</svg>
