<svg width="184.000000" height="46.000000" viewBox="0 0 184 46" fill="none" xmlns="http://www.w3.org/2000/svg" xmlns:xlink="http://www.w3.org/1999/xlink">
	<desc>
			Created with Pixso.
	</desc>
	<defs>
		<clipPath id="clip1_8527">
			<rect id="Layer_1" rx="0.000000" width="183.000000" height="45.000000" transform="translate(0.500000 0.500000)" fill="white" fill-opacity="0"/>
		</clipPath>
	</defs>
	<g clip-path="url(#clip1_8527)">
		<path id="Vector" d="M75.89 30.52C72.97 34.08 68.79 36.38 64.19 36.38C56.24 36.38 49.97 30.73 49.97 23.41C49.97 19.86 51.43 16.51 54.15 14C56.66 11.5 60.21 10.24 63.77 10.45C68.37 10.45 72.76 12.54 75.48 16.3L70.25 20.07C68.79 17.77 66.49 16.3 63.77 16.3C59.8 16.3 56.45 19.65 56.45 23.62C56.66 27.8 60 30.94 63.98 30.94C66.69 30.94 69.2 29.69 70.67 27.39L75.89 30.52Z" fill="#181818" fill-opacity="1.000000" fill-rule="nonzero"/>
		<path id="Vector" d="M78.82 0L85.3 0L85.3 35.75L78.82 35.75L78.82 0Z" fill="#181818" fill-opacity="1.000000" fill-rule="evenodd"/>
		<path id="Vector" d="M102.66 30.73C106.84 30.73 110.4 27.39 110.6 23.2C110.4 19.02 106.84 15.68 102.66 15.68C98.48 15.68 94.92 19.02 94.71 23.2C94.92 27.39 98.27 30.73 102.66 30.73ZM102.66 10.24C106.21 10.03 109.77 11.29 112.49 13.79C115.2 16.3 116.67 19.65 116.88 23.2C116.67 26.76 115.2 30.31 112.49 32.61C109.77 35.12 106.21 36.38 102.66 36.17C94.71 36.17 88.44 30.52 88.44 23.2C88.44 15.89 94.71 10.24 102.66 10.24Z" fill="#181818" fill-opacity="1.000000" fill-rule="nonzero"/>
		<path id="Vector" d="M115.62 10.66L123.36 10.66L129.63 24.04L136.32 10.66L143.43 10.66L129.63 37.21L115.62 10.66Z" fill="#181818" fill-opacity="1.000000" fill-rule="nonzero"/>
		<path id="Vector" d="M162.04 19.65C161 17.14 158.7 15.68 155.98 15.68C153.26 15.68 150.75 17.14 149.5 19.65L162.04 19.65ZM166.22 32.82C163.5 35.12 160.16 36.17 156.6 36.17C148.66 36.17 142.39 30.52 142.39 23.2C142.39 19.65 143.85 16.3 146.36 13.79C148.87 11.29 152.42 10.03 155.98 10.24C159.53 10.03 162.88 11.49 165.39 14C167.9 16.51 169.15 19.86 168.94 23.41L168.94 25.09L148.87 25.09C149.91 28.43 153.05 30.73 156.6 30.73C158.7 30.73 160.79 29.89 162.46 28.22L166.22 32.82ZM172.08 21.74C172.08 15.68 176.68 10.87 184 10.87L184 16.72C182.53 16.72 180.86 17.35 179.81 18.39C178.77 19.44 178.35 21.11 178.56 22.58L178.56 35.75L172.08 35.75L172.08 21.74Z" fill="#181818" fill-opacity="1.000000" fill-rule="nonzero"/>
		<path id="Vector" d="M20.28 11.7C20.28 7.52 17.77 3.97 14 2.29C10.24 0.62 5.85 1.46 2.92 4.39C0 7.31 -0.84 11.7 0.62 15.47C2.09 19.23 5.85 21.74 10.03 21.74L20.28 21.74L20.28 11.7ZM23.2 11.7C23.2 7.52 25.71 3.97 29.48 2.29C33.24 0.62 37.63 1.46 40.56 4.39C43.49 7.31 44.32 11.7 42.86 15.47C41.4 19.23 37.63 21.74 33.45 21.74L23.2 21.74L23.2 11.7ZM23.2 34.7C23.2 38.89 25.71 42.44 29.48 44.11C33.24 45.79 37.63 44.95 40.56 42.02C43.49 39.09 44.32 34.7 42.86 30.94C41.4 27.18 37.63 24.67 33.45 24.67L23.2 24.67L23.2 34.7ZM10.03 42.02C14 42.02 17.35 38.89 17.35 34.7L17.35 27.39L10.03 27.39C6.06 27.39 2.71 30.52 2.71 34.7C2.71 38.89 6.06 42.02 10.03 42.02ZM20.28 34.7C20.28 38.89 17.77 42.44 14 44.11C10.24 45.79 5.85 44.95 2.92 42.02C0 39.09 -0.84 34.7 0.62 30.94C2.09 27.18 5.85 24.67 10.03 24.67L20.28 24.67L20.28 34.7Z" fill="#444444" fill-opacity="1.000000" fill-rule="nonzero"/>
	</g>
</svg>
