<svg width="90.000000" height="90.000000" viewBox="0 0 90 90" fill="none" xmlns="http://www.w3.org/2000/svg" xmlns:xlink="http://www.w3.org/1999/xlink">
	<desc>
			Created with Pixso.
	</desc>
	<defs>
		<clipPath id="clip1_8457">
			<rect id="Facebook - Original" rx="44.434116" width="88.868233" height="88.868233" transform="translate(0.565882 0.565882)" fill="white" fill-opacity="0"/>
		</clipPath>
	</defs>
	<rect id="Facebook - Original" rx="44.434116" width="88.868233" height="88.868233" transform="translate(0.565882 0.565882)" fill="#FFFFFF" fill-opacity="0"/>
	<g clip-path="url(#clip1_8457)">
		<path id="Vector" d="M90 45C90 20.14 69.85 0 45 0C20.14 0 0 20.14 0 45C0 67.46 16.45 86.07 37.96 89.45L37.96 58L26.54 58L26.54 45L37.96 45L37.96 35.08C37.96 23.8 44.68 17.57 54.96 17.57C59.88 17.57 65.03 18.45 65.03 18.45L65.03 29.53L59.36 29.53C53.77 29.53 52.03 33 52.03 36.56L52.03 45L64.51 45L62.51 58L52.03 58L52.03 89.45C73.54 86.07 90 67.46 90 45Z" fill="#954CED" fill-opacity="1.000000" fill-rule="nonzero"/>
		<path id="Vector" d="M62.51 58L64.51 45L52.03 45L52.03 36.56C52.03 33 53.77 29.53 59.36 29.53L65.03 29.53L65.03 18.45C65.03 18.45 59.88 17.57 54.96 17.57C44.68 17.57 37.96 23.8 37.96 35.08L37.96 45L26.54 45L26.54 58L37.96 58L37.96 89.45C42.62 90.18 47.37 90.18 52.03 89.45L52.03 58L62.51 58Z" fill="#FFFFFF" fill-opacity="1.000000" fill-rule="nonzero"/>
	</g>
</svg>
