<svg width="90.000000" height="90.000000" viewBox="0 0 90 90" fill="none" xmlns="http://www.w3.org/2000/svg" xmlns:xlink="http://www.w3.org/1999/xlink">
	<desc>
			Created with Pixso.
	</desc>
	<defs>
		<clipPath id="clip1_8461">
			<rect id="Instagram - Negative" rx="0.000000" width="44.138821" height="44.138821" transform="translate(23.201136 23.201136)" fill="white" fill-opacity="0"/>
		</clipPath>
		<clipPath id="clip1_8460">
			<rect id="Frame 1321314845" rx="44.434116" width="88.868233" height="88.868233" transform="translate(0.565882 0.565882)" fill="white" fill-opacity="0"/>
		</clipPath>
	</defs>
	<rect id="Frame 1321314845" rx="44.434116" width="88.868233" height="88.868233" transform="translate(0.565882 0.565882)" fill="#954CED" fill-opacity="1.000000"/>
	<g clip-path="url(#clip1_8460)">
		<rect id="Instagram - Negative" rx="0.000000" width="44.138821" height="44.138821" transform="translate(23.201136 23.201136)" fill="#FFFFFF" fill-opacity="0"/>
		<g clip-path="url(#clip1_8461)">
			<path id="Vector" d="M45.27 26.71C51.31 26.71 52.03 26.73 54.41 26.84C56.62 26.94 57.81 27.31 58.61 27.62C59.66 28.02 60.42 28.52 61.21 29.31C62 30.1 62.49 30.85 62.9 31.91C63.21 32.7 63.58 33.9 63.67 36.11C63.78 38.49 63.81 39.21 63.81 45.25C63.81 51.3 63.78 52.01 63.67 54.39C63.58 56.6 63.21 57.79 62.9 58.59C62.49 59.64 61.99 60.4 61.21 61.19C60.41 61.99 59.66 62.47 58.61 62.88C57.81 63.19 56.61 63.56 54.41 63.66C52.02 63.76 51.3 63.79 45.27 63.79C39.22 63.79 38.5 63.76 36.12 63.66C33.91 63.56 32.72 63.19 31.92 62.88C30.87 62.47 30.11 61.98 29.32 61.19C28.53 60.39 28.04 59.64 27.63 58.59C27.33 57.79 26.95 56.59 26.86 54.39C26.75 52 26.72 51.29 26.72 45.25C26.72 39.2 26.75 38.48 26.86 36.11C26.95 33.89 27.33 32.7 27.63 31.91C28.04 30.85 28.54 30.09 29.32 29.31C30.12 28.51 30.87 28.02 31.92 27.62C32.72 27.31 33.92 26.94 36.12 26.84C38.5 26.73 39.22 26.71 45.27 26.71ZM45.27 22.63C39.12 22.63 38.35 22.66 35.94 22.76C33.53 22.87 31.88 23.26 30.45 23.82C28.95 24.4 27.69 25.17 26.43 26.43C25.17 27.69 24.4 28.95 23.82 30.44C23.26 31.88 22.87 33.52 22.76 35.93C22.66 38.35 22.63 39.12 22.63 45.27C22.63 51.41 22.66 52.18 22.76 54.59C22.87 57 23.26 58.65 23.82 60.08C24.4 61.58 25.17 62.84 26.43 64.1C27.69 65.35 28.95 66.13 30.44 66.71C31.88 67.26 33.52 67.65 35.93 67.76C38.34 67.87 39.11 67.89 45.26 67.89C51.4 67.89 52.17 67.87 54.58 67.76C56.99 67.65 58.64 67.26 60.08 66.71C61.56 66.13 62.83 65.35 64.08 64.1C65.34 62.84 66.11 61.58 66.69 60.09C67.25 58.65 67.64 57.01 67.74 54.6C67.85 52.19 67.87 51.42 67.87 45.27C67.87 39.13 67.85 38.36 67.74 35.95C67.64 33.54 67.25 31.89 66.69 30.46C66.13 28.95 65.36 27.69 64.1 26.43C62.84 25.18 61.58 24.4 60.09 23.82C58.65 23.27 57.01 22.88 54.6 22.77C52.18 22.66 51.41 22.63 45.27 22.63Z" fill="#FFFFFF" fill-opacity="1.000000" fill-rule="nonzero"/>
			<path id="Vector" d="M45.27 33.64C38.85 33.64 33.64 38.85 33.64 45.27C33.64 51.68 38.85 56.89 45.27 56.89C51.68 56.89 56.89 51.68 56.89 45.27C56.89 38.85 51.68 33.64 45.27 33.64ZM45.27 52.81C41.1 52.81 37.72 49.43 37.72 45.27C37.72 41.1 41.1 37.72 45.27 37.72C49.43 37.72 52.81 41.1 52.81 45.27C52.81 49.43 49.43 52.81 45.27 52.81Z" fill="#FFFFFF" fill-opacity="1.000000" fill-rule="nonzero"/>
			<path id="Vector" d="M60.07 33.18C60.07 34.68 58.85 35.89 57.35 35.89C55.85 35.89 54.64 34.67 54.64 33.18C54.64 31.68 55.86 30.46 57.35 30.46C58.85 30.46 60.07 31.68 60.07 33.18Z" fill="#FFFFFF" fill-opacity="1.000000" fill-rule="nonzero"/>
		</g>
	</g>
</svg>
