<svg width="209.000000" height="60.000000" viewBox="0 0 209 60" fill="none" xmlns="http://www.w3.org/2000/svg" xmlns:xlink="http://www.w3.org/1999/xlink">
	<desc>
			Created with Pixso.
	</desc>
	<defs/>
	<path id="Vector" d="M184.24 59.99C183.63 58.16 183.06 56.31 182.41 54.48C182.21 53.91 182.52 53.84 182.89 53.7C185.69 52.62 188.01 50.93 189.68 48.38C189.93 48.03 190.1 47.63 190.19 47.2C190.28 46.77 190.28 46.33 190.19 45.9C188.85 38.78 187.55 31.64 186.22 24.51C185.99 23.22 185.97 23.23 187.23 23.23C189.07 23.23 190.91 23.25 192.74 23.21C193.31 23.21 193.48 23.39 193.53 23.96C194.04 29.25 194.58 34.54 195.11 39.83C195.12 40 195.09 40.19 195.28 40.31C195.5 40.17 195.51 39.92 195.58 39.71C197.37 34.43 199.39 29.24 201.36 24.03C201.6 23.41 201.9 23.2 202.56 23.21C204.68 23.25 206.81 23.23 209 23.23C208.96 23.4 208.92 23.57 208.86 23.73C205.33 31.14 202.13 38.72 198.34 45.99C196.59 49.36 194.56 52.55 191.93 55.31C189.92 57.42 187.55 58.98 184.75 59.83C184.68 59.85 184.63 59.94 184.57 59.99L184.24 59.99Z" fill="#181818" fill-opacity="1.000000" fill-rule="nonzero"/>
	<path id="Vector" d="M35.96 58.94C35.96 41.58 35.96 24.22 35.96 6.87C36.37 6.82 36.59 7.11 36.84 7.35C37.78 8.27 38.73 9.18 39.64 10.13C39.83 10.35 40.06 10.53 40.33 10.64C40.59 10.75 40.88 10.8 41.17 10.78C42.1 10.74 43.04 10.84 43.97 10.8C44.83 10.77 45.22 11.1 45.35 11.98C45.86 15.73 46.43 19.47 46.98 23.21C47.83 28.99 48.67 34.76 49.52 40.54C50.19 45.06 50.84 49.59 51.53 54.12C51.64 54.84 51.51 55.19 50.72 55.39C46.08 56.5 41.45 57.68 36.82 58.83C36.53 58.88 36.25 58.92 35.96 58.94Z" fill="#181818" fill-opacity="1.000000" fill-rule="nonzero"/>
	<path id="Vector" d="M93.05 48.52C93.78 44.6 94.51 40.76 95.21 36.92C95.56 34.99 96.05 33.08 96.02 31.08C95.98 28.7 94.28 27.71 92.21 28.92C91.06 29.59 90.32 30.63 89.69 31.78C88.57 33.79 88.21 36.03 87.79 38.25C87.19 41.43 86.59 44.6 86.01 47.78C85.91 48.34 85.71 48.54 85.11 48.53C83.25 48.49 81.38 48.49 79.5 48.53C78.9 48.54 78.76 48.35 78.87 47.78C80.72 38.12 82.55 28.45 84.37 18.79C84.76 16.77 85.15 14.75 85.5 12.72C85.6 12.18 85.8 12 86.36 12.02C88.22 12.05 90.09 12.05 91.96 12.02C92.61 12 92.74 12.18 92.61 12.83C91.74 17.2 90.92 21.59 90.09 25.97C90.08 26.07 90.08 26.16 90.09 26.25C90.42 26.27 90.51 25.98 90.67 25.81C92.42 23.98 94.48 22.87 97.03 22.66C100.6 22.37 103.13 24.53 103.38 28.14C103.54 30.49 103.11 32.77 102.68 35.05C101.86 39.32 101.06 43.59 100.26 47.86C100.2 48.16 100.26 48.53 99.76 48.52C97.54 48.51 95.32 48.52 93.05 48.52Z" fill="#181818" fill-opacity="1.000000" fill-rule="nonzero"/>
	<path id="Vector" d="M167.97 48.52C168.57 45.27 169.16 42.1 169.75 38.93C170.36 35.73 170.95 32.53 171.59 29.33C171.72 28.67 171.52 28.51 170.91 28.55C170.29 28.59 169.62 28.54 168.98 28.57C168.53 28.58 168.43 28.39 168.51 27.98C168.8 26.54 169.09 25.1 169.34 23.66C169.42 23.25 169.61 23.13 169.99 23.13C170.69 23.15 171.39 23.11 172.1 23.14C172.61 23.17 172.8 22.97 172.87 22.46C173.1 20.89 173.54 19.36 174.17 17.9C176.05 13.6 179.86 11.26 184.58 11.53C185.48 11.55 186.38 11.69 187.25 11.92C187.67 12.05 187.84 12.22 187.72 12.66C187.34 14.17 186.96 15.67 186.6 17.19C186.5 17.61 186.31 17.66 185.92 17.59C182.64 17.01 180.85 18.22 180.08 21.5C179.7 23.13 179.7 23.13 181.32 23.13C182.23 23.13 183.13 23.15 184.03 23.13C184.51 23.12 184.66 23.29 184.56 23.76C184.29 25.17 184.02 26.58 183.78 28.01C183.71 28.44 183.53 28.58 183.1 28.57C181.9 28.55 180.7 28.59 179.51 28.55C178.97 28.53 178.75 28.72 178.65 29.25C177.54 35.22 176.43 41.19 175.3 47.16C175.23 47.45 175.18 47.74 175.14 48.03C175.11 48.4 174.94 48.53 174.58 48.53C172.4 48.52 170.22 48.52 167.97 48.52Z" fill="#181818" fill-opacity="1.000000" fill-rule="nonzero"/>
	<path id="Vector" d="M66.99 48.96C64.25 48.98 62.12 48.55 60.1 47.62C59.58 47.37 59.37 47.12 59.61 46.5C60.09 45.3 60.49 44.07 60.88 42.84C61.06 42.3 61.23 42.17 61.78 42.44C63.2 43.13 64.74 43.55 66.31 43.68C66.98 43.75 67.65 43.68 68.29 43.49C70.04 42.91 70.57 41.03 69.39 39.59C68.9 38.99 68.26 38.58 67.62 38.17C66.99 37.77 66.29 37.33 65.65 36.88C60.3 33.08 62.33 26.86 66.21 24.48C69.05 22.73 72.13 22.52 75.32 22.84C76.31 22.94 77.28 23.17 78.2 23.54C78.67 23.73 78.88 23.93 78.67 24.51C78.2 25.77 77.81 27.07 77.42 28.36C77.28 28.83 77.08 28.93 76.63 28.75C75.22 28.17 73.7 27.92 72.18 28.03C71.62 28.06 71.08 28.22 70.6 28.5C69.38 29.22 69.14 30.65 70.06 31.74C70.54 32.31 71.16 32.69 71.8 33.06C72.74 33.59 73.64 34.2 74.49 34.86C79.15 38.49 77.38 44.53 74 46.86C72.07 48.19 69.61 48.92 66.99 48.96Z" fill="#181818" fill-opacity="1.000000" fill-rule="nonzero"/>
	<path id="Vector" d="M158.22 48.52C157.32 48.52 156.41 48.45 155.51 48.54C154.62 48.62 154.76 48.14 154.86 47.59C155.5 44.25 156.14 40.9 156.77 37.55C157.63 33.03 158.5 28.5 159.34 23.97C159.43 23.45 159.57 23.21 160.15 23.22C162.07 23.25 164 23.25 165.92 23.22C166.5 23.21 166.61 23.39 166.51 23.94C164.98 31.86 163.46 39.79 161.96 47.73C161.85 48.3 161.68 48.58 161.02 48.53C160.1 48.46 159.16 48.52 158.22 48.52Z" fill="#181818" fill-opacity="1.000000" fill-rule="nonzero"/>
	<path id="Vector" d="M168.15 15.91C168.16 18.36 166.42 20.11 163.97 20.11C161.92 20.11 160.59 18.72 160.58 16.58C160.58 14.23 162.33 12.41 164.61 12.39C166.67 12.38 168.14 13.83 168.15 15.91Z" fill="#181818" fill-opacity="1.000000" fill-rule="nonzero"/>
	<path id="Subtract" d="M139.605 26.9027C140.059 26.3943 140.369 26.0171 140.707 25.6716C143.003 23.3141 145.724 22.1416 149.015 22.8643C151.917 23.5037 153.571 25.5796 154.065 28.3551C155.323 35.4224 153.574 41.6519 148.048 46.3882C144.839 49.1372 141.017 49.8156 136.971 48.2941C136.402 48.0804 136.359 48.3431 136.304 48.6819C136.298 48.7167 136.293 48.7523 136.286 48.7882C135.76 51.7056 135.193 54.6174 134.697 57.5417C134.558 58.3513 134.316 58.7303 133.395 58.6807C131.709 58.5886 130.013 58.6205 128.313 58.67C127.588 58.6913 127.36 58.5497 127.512 57.7632C128.669 51.7959 129.79 45.8232 130.915 39.8523C131.925 34.5155 133.018 29.1912 133.633 23.787C133.691 23.2841 133.833 23.0697 134.373 23.0785C136.034 23.1093 137.696 23.1093 139.36 23.0785C139.885 23.0697 140.003 23.2787 139.941 23.757C139.826 24.7294 139.733 25.7141 139.605 26.9027ZM143.868 41.8042C146.068 39.1827 146.884 36.0388 147.119 32.6964C147.142 31.8705 147.008 31.0479 146.723 30.2733C146.281 29.1007 145.379 28.5322 144.151 28.5693C142.922 28.6066 142.009 29.2655 141.233 30.1387C139.996 31.5273 139.272 33.1941 138.899 34.9938C138.429 37.2609 138.103 39.5582 137.618 41.8201C137.458 42.5818 137.734 42.8757 138.319 43.1627C140.301 44.1299 142.291 43.6888 143.868 41.8042Z" clip-rule="evenodd" fill="#181818" fill-opacity="1.000000" fill-rule="evenodd"/>
	<path id="Subtract" d="M105.289 37.9814C105.501 33.3868 107.234 28.6434 111.673 25.2285C114.551 23.0197 117.862 22.2368 121.414 22.809C125.259 23.4271 127.674 25.7758 128.669 29.5397C129.983 34.4991 128.226 42.9091 122.168 46.8979C119.282 48.7949 116.106 49.4645 112.726 48.8055C108.014 47.8864 105.27 44.1543 105.289 37.9814ZM119.989 40.2505C121.095 37.9949 121.712 35.527 121.8 33.0114C121.81 32.069 121.791 31.2772 121.551 30.505C120.911 28.3901 118.819 27.5187 116.87 28.5566C116.179 28.942 115.585 29.484 115.135 30.1401C113.854 31.9132 113.19 33.9413 112.803 36.0668C112.502 37.7246 112.319 39.3932 112.815 41.0439C113.586 43.6246 116.283 44.3739 118.284 42.5779C118.995 41.9194 119.573 41.1294 119.989 40.2505Z" clip-rule="evenodd" fill="#181818" fill-opacity="1.000000" fill-rule="evenodd"/>
	<path id="Subtract" d="M35.9653 58.946C33.0039 58.4501 30.0408 57.9684 27.0828 57.4564C18.4036 55.9545 9.73486 54.4293 1.05029 52.9451C0.212646 52.8016 -0.102783 52.6104 0.0288086 51.6237C1.29395 42.1581 2.49438 32.6837 3.70874 23.2111C3.95044 21.3459 4.21143 19.4825 4.427 17.6139C4.52515 16.7708 4.95288 16.2979 5.74487 16.0587C7.49707 15.5273 9.24951 14.9517 11.0142 14.4292C11.6116 14.2521 11.8901 13.9457 12.0356 13.3026C13.0625 8.92236 14.8938 4.97778 18.344 1.96667C19.6758 0.804688 21.2214 0.0731201 23.021 0.00769043C23.6494 -0.0288086 24.2783 0.0653076 24.8694 0.283936C25.4604 0.502686 26.0007 0.841431 26.4573 1.27942C26.7183 1.52734 26.969 1.73108 27.3633 1.73108C29.6902 1.73108 31.2288 3.00464 32.3433 4.91931C32.6797 5.47009 32.9531 6.05786 33.1582 6.67114C33.3596 7.33179 33.6926 7.40259 34.2585 7.18835L34.2886 7.177C34.8433 6.9668 35.3662 6.76868 35.9602 6.87659C36.0923 6.99231 36.1978 7.13611 36.2686 7.29785C36.3394 7.45947 36.374 7.63501 36.3701 7.81177C36.3894 8.16602 36.3948 8.52026 36.3948 8.87451Q36.3948 32.9193 36.386 56.964C36.3865 57.0886 36.3936 57.2162 36.4009 57.3448C36.4321 57.9071 36.4646 58.4905 35.9653 58.946ZM19.5862 9.28552C20.6096 6.51001 22.0535 4.03735 24.6294 2.39355C24.2771 1.98804 23.8638 1.96313 23.4624 1.93311C22.1411 1.83386 20.9897 2.30322 19.9805 3.10913C16.8525 5.6084 15.188 9.02515 14.0786 12.7803C13.9087 13.3558 14.1436 13.4639 14.6553 13.2867C15.5962 12.9751 16.532 12.6279 17.4958 12.4119C18.4595 12.1957 19.0623 11.7777 19.1604 10.715C19.2043 10.2296 19.4111 9.75134 19.5862 9.28552ZM28.6257 3.87207C28.3826 3.77185 28.0964 3.65405 28.1501 4.13818C28.5569 5.51758 28.7825 6.94507 28.8213 8.38391C28.8369 8.76648 29.0823 8.74341 29.3801 8.69214C31.6758 8.28821 31.8914 7.82593 30.698 5.82446C30.1934 4.97595 29.5676 4.25867 28.6355 3.8761L28.6257 3.87207ZM26.8916 8.03857C26.9441 9.44312 26.9441 9.44495 25.6245 9.85754C24.3052 10.2703 22.9541 10.6919 21.6169 11.1082C21.2666 11.2144 20.916 11.2853 21.1035 10.7202C21.9026 8.25635 22.968 5.95557 25.134 4.38086C25.9382 3.7981 26.0662 3.84949 26.3694 4.83252C26.6924 5.87085 26.8682 6.95032 26.8916 8.03857ZM10.21 46.333C12.2949 47.9357 14.8489 48.7896 17.468 48.7596C19.2168 48.7703 20.4155 48.5311 21.6387 47.9288C25.0347 46.2498 26.8606 42.1085 26.0859 37.9497C25.5989 35.3335 24.0112 33.5427 21.9365 32.0815C20.7905 31.2721 19.5447 30.6042 18.4932 29.6602C17.0967 28.4115 17.3384 26.4419 19.0032 25.5863C19.3943 25.389 19.8115 25.2495 20.2419 25.1719C21.7742 24.9065 23.3481 25.0475 24.8103 25.5811C25.3606 25.7723 25.585 25.6608 25.7268 25.0868C26.1614 23.318 26.6287 21.5573 27.1287 19.8049C27.3196 19.1301 27.1182 18.8396 26.4646 18.682C24.7612 18.2728 23.0562 18.3171 21.3354 18.5297C16.4746 19.1318 12.8245 22.2847 11.7625 26.8333C10.8303 30.8257 11.9097 33.7554 15.1936 36.1625C15.877 36.6637 16.5603 37.1703 17.2192 37.7017C17.8267 38.1689 18.281 38.8102 18.5229 39.542C19.0627 41.2548 18.0254 42.7161 16.2449 42.7302C15.7778 42.7314 15.3127 42.6719 14.8606 42.5531C13.6731 42.2323 12.5474 41.7113 11.5312 41.0122C10.9407 40.6189 10.6567 40.5889 10.5078 41.3983C10.2888 42.5815 10.0137 43.7594 9.68433 44.916C9.50903 45.5802 9.70703 45.9521 10.21 46.333Z" clip-rule="evenodd" fill="#444444" fill-opacity="1.000000" fill-rule="evenodd"/>
</svg>
