<svg width="182.000000" height="48.000000" viewBox="0 0 182 48" fill="none" xmlns="http://www.w3.org/2000/svg" xmlns:xlink="http://www.w3.org/1999/xlink">
	<desc>
			Created with Pixso.
	</desc>
	<defs>
		<clipPath id="clip1_8499">
			<rect id="Слой_1" rx="0.000000" width="181.000000" height="47.000000" transform="translate(0.500000 0.500000)" fill="white" fill-opacity="0"/>
		</clipPath>
	</defs>
	<rect id="Слой_1" rx="0.000000" width="181.000000" height="47.000000" transform="translate(0.500000 0.500000)" fill="#FFFFFF" fill-opacity="0"/>
	<g clip-path="url(#clip1_8499)">
		<path id="Vector" d="M98.91 47.58C98.92 44.72 98.94 41.86 98.95 39.01C98.95 38.03 98.95 37.05 98.95 35.92C98.83 36.01 98.72 36.12 98.61 36.23C95.06 41.05 85.91 40.96 83.23 32.95C81.78 28.61 82.03 24.3 84.77 20.5C88.08 15.9 94.68 15.67 98.41 19.89C98.53 20.05 98.67 20.18 98.93 20.48L98.93 17.45L101.86 17.45L101.86 47.58L98.91 47.58ZM98.95 28.19C98.97 26.45 98.69 24.78 97.85 23.25C96.46 20.73 94.28 19.69 91.55 19.87C88.93 20.04 87.14 21.49 86.22 24.02C85.21 26.82 85.19 29.68 86.25 32.46C87.22 35.01 89.13 36.36 91.76 36.5C94.27 36.64 96.33 35.65 97.69 33.39C98.65 31.8 98.97 30.03 98.95 28.19Z" fill="#181818" fill-opacity="1.000000" fill-rule="nonzero"/>
		<path id="Vector" d="M58.44 33.89L61 31.95C61.09 32.05 61.18 32.15 61.26 32.27C63.68 36.03 68.44 37.04 72.03 35.94C74.71 35.13 76.13 33.01 75.91 30.22C75.8 28.86 75.21 27.74 74.04 27.21C72.33 26.42 70.51 25.85 68.73 25.2C66.88 24.52 64.96 24.02 63.19 23.15C57.83 20.53 58.38 13.11 62.79 10.34C67.72 7.23 75.13 8.65 78.53 13.54L76.11 15.51C74.89 13.92 73.42 12.8 71.59 12.26C69.29 11.59 67.01 11.61 64.85 12.79C62.99 13.81 62.16 15.84 62.73 17.83C63 18.78 63.56 19.56 64.4 19.97C65.65 20.56 66.93 21.08 68.23 21.53C70.2 22.23 72.22 22.79 74.17 23.56C75.13 23.96 76.02 24.52 76.8 25.22C80.22 28.24 79.92 34.11 76.24 37.17C74.66 38.48 72.81 39.16 70.82 39.37C66.43 39.82 62.52 38.76 59.46 35.25C59.09 34.84 58.79 34.37 58.44 33.89Z" fill="#181818" fill-opacity="1.000000" fill-rule="nonzero"/>
		<path id="Vector" d="M181.73 28.7L165.92 28.7C165.51 31.28 167.21 34.57 169.54 35.75C171.12 36.53 172.91 36.73 174.62 36.32C176.33 35.92 177.85 34.92 178.95 33.5L181.01 35.4C180.13 36.6 178.99 37.58 177.68 38.26C173.47 40.5 168.1 39.55 165.25 36.04C163.43 33.81 162.77 31.15 162.77 28.29C162.77 24.72 163.7 21.49 166.45 19.14C169.36 16.64 172.71 16.29 176.17 17.64C179.48 18.93 181.25 21.63 181.71 25.22C181.86 26.34 181.73 27.49 181.73 28.7ZM165.97 25.97L178.73 25.97C178.62 22.4 176.1 19.88 172.62 19.82C168.93 19.75 166.22 22.24 165.97 25.97Z" fill="#181818" fill-opacity="1.000000" fill-rule="nonzero"/>
		<path id="Vector" d="M130.96 22.14L129.46 19.79C131.13 18.4 133.11 17.49 135.22 17.14C137.26 16.78 139.29 16.79 141.25 17.56C143.54 18.46 144.93 20.43 144.94 22.94C144.98 28.12 144.95 33.31 144.95 38.49C144.95 38.61 144.93 38.74 144.9 38.96C144.09 38.96 143.28 38.99 142.48 38.93C142.33 38.92 142.1 38.6 142.08 38.4C142.05 37.87 142.04 37.35 142.06 36.82C141.95 36.82 141.89 36.8 141.87 36.82C139.15 39.7 135.88 40.01 132.4 38.85C129.9 38.01 128.5 35.78 128.47 32.98C128.44 30.22 129.65 28.15 132.19 27.26C133.94 26.64 135.82 26.42 137.63 25.97C138.68 25.73 139.72 25.41 140.72 25C141.63 24.61 142.08 23.8 142.05 22.73C142.02 21.67 141.51 20.94 140.64 20.48C139.17 19.72 137.6 19.7 136.02 19.91C134.18 20.17 132.47 20.83 130.96 22.14ZM141.98 27.3C139.92 28.4 137.72 28.62 135.56 29.07C134.79 29.24 134.04 29.47 133.3 29.75C132.94 29.88 132.61 30.09 132.33 30.37C132.06 30.64 131.84 30.98 131.71 31.35C130.97 33.37 131.92 35.49 133.89 36.17C134.38 36.33 134.89 36.44 135.4 36.49C138.7 36.9 141.51 34.9 141.95 31.68C142.14 30.29 141.98 28.84 141.98 27.3Z" fill="#181818" fill-opacity="1.000000" fill-rule="nonzero"/>
		<path id="Vector" d="M124.02 38.92L121.21 38.92L121.21 35.99C120.91 36.31 120.75 36.47 120.6 36.64C119.44 37.92 117.94 38.82 116.29 39.23C114.64 39.63 112.91 39.52 111.32 38.91C108.84 37.93 107.65 35.88 107.21 33.28C107.09 32.53 107.04 31.76 107.04 31C107.03 26.79 107.04 22.57 107.04 18.36L107.04 17.47L109.95 17.47L109.95 18.26C109.95 22.27 109.95 26.28 109.96 30.29C109.95 31.05 110.01 31.81 110.12 32.57C110.58 35.52 112.39 36.73 115.16 36.49C118.78 36.17 121.17 33.3 121.19 29.37C121.21 25.7 121.19 22.02 121.19 18.34L121.19 17.46L124.03 17.46L124.02 38.92Z" fill="#181818" fill-opacity="1.000000" fill-rule="nonzero"/>
		<path id="Vector" d="M150.18 38.96L150.18 17.47L153.01 17.47L153.01 19.86L153.29 20.07C153.39 19.87 153.44 19.63 153.59 19.49C155.67 17.35 158.1 16.46 160.99 17.37C162.04 17.71 162.03 17.77 161.68 18.81C161.49 19.38 161.3 19.95 161.17 20.36C160 20.26 158.92 19.97 157.89 20.1C155.44 20.41 153.7 22.4 153.24 25.23C153.11 26.12 153.05 27.01 153.06 27.9C153.03 31.32 153.03 34.74 153.06 38.16C153.06 38.79 152.9 39.03 152.27 38.98C151.6 38.92 150.91 38.96 150.18 38.96Z" fill="#181818" fill-opacity="1.000000" fill-rule="nonzero"/>
		<path id="Subtract" d="M18.4026 0.414062L27.9026 0.414062C37.8438 0.414062 45.9026 8.4729 45.9026 18.4141L45.9026 29.5864C45.9026 39.5276 37.8438 47.5864 27.9026 47.5864L18.4026 47.5864C8.46143 47.5864 0.402588 39.5276 0.402588 29.5864L0.402588 18.4141C0.402588 8.4729 8.46143 0.414062 18.4026 0.414062ZM30.8496 8.68994L15.4556 8.68994C11.5896 8.68994 8.45557 11.824 8.45557 15.6899L8.45557 32.3107C8.45557 36.1766 11.5896 39.3107 15.4556 39.3107L30.8496 39.3107C34.7156 39.3107 37.8496 36.1766 37.8496 32.3107L37.8496 15.6899C37.8496 11.824 34.7156 8.68994 30.8496 8.68994Z" clip-rule="evenodd" fill="#181818" fill-opacity="1.000000" fill-rule="evenodd"/>
		<rect id="Rectangle 162" x="16.911621" y="17.379395" rx="4.000000" width="12.482300" height="13.241378" fill="#181818" fill-opacity="1.000000"/>
	</g>
</svg>
