<svg width="277.000000" height="40.000000" viewBox="0 0 277 40" fill="none" xmlns="http://www.w3.org/2000/svg" xmlns:xlink="http://www.w3.org/1999/xlink">
	<desc>
			Created with Pixso.
	</desc>
	<defs>
		<clipPath id="clip1_8511">
			<rect id="Слой_1" rx="0.000000" width="276.000000" height="39.000000" transform="translate(0.500000 0.500000)" fill="white" fill-opacity="0"/>
		</clipPath>
	</defs>
	<rect id="Слой_1" rx="0.000000" width="276.000000" height="39.000000" transform="translate(0.500000 0.500000)" fill="#FFFFFF" fill-opacity="0"/>
	<g clip-path="url(#clip1_8511)">
		<path id="Vector" d="M32.5 39.98L30.25 37.54C31.31 36.56 32.43 35.58 33.48 34.52C36.91 31.07 40.34 27.62 43.72 24.11C45.77 22 46.02 19.1 44.46 16.87C42.32 13.8 38.35 13.49 35.64 16.22C31.4 20.47 27.19 24.74 22.98 29.02L20.24 31.81L17.76 29.11C21.18 25.74 24.68 22.31 28.17 18.86C29.91 17.13 31.6 15.35 33.35 13.63C37.04 10.01 42.61 9.97 46.17 13.51C49.74 17.05 49.91 22.72 46.3 26.41C41.81 30.99 37.16 35.41 32.5 39.98Z" fill="#181818" fill-opacity="1.000000" fill-rule="nonzero"/>
		<path id="Vector" d="M18.18 2.6C13.77 6.98 9.27 11.34 4.85 15.81C1.97 18.73 2.69 23.18 6.23 25.04C8.32 26.13 11.04 25.63 12.94 23.72C17.87 18.74 22.79 13.76 27.7 8.76C27.86 8.6 28.02 8.45 28.24 8.24L30.76 10.98C26.91 14.75 22.91 18.65 18.93 22.58C17.63 23.86 16.39 25.19 15.08 26.45C11.31 30.03 5.79 29.99 2.26 26.39C0.57 24.65 -0.37 22.32 -0.36 19.9C-0.35 17.48 0.61 15.15 2.31 13.43C6.73 8.92 11.25 4.51 15.87 -0.09L18.18 2.6Z" fill="#181818" fill-opacity="1.000000" fill-rule="nonzero"/>
		<path id="Vector" d="M96.1 27.72L99.04 31.73C96.79 31.9 94.99 32.33 93.98 30.25C93.61 29.49 93.08 29.75 92.5 29.98C88.06 31.57 83.25 30.04 80.86 26.29C77.64 21.23 79.19 13.66 84.06 10.99C87.51 9.11 91.05 9.16 94.4 11.21C97.84 13.32 98.94 16.73 98.89 20.59C98.88 23.23 97.89 25.78 96.1 27.72ZM94.51 24.01C95.46 21.68 95.5 18.97 94.65 16.61C93.74 14.12 91.81 12.83 89.25 12.72C86.8 12.62 84.8 13.66 83.7 15.95C82.26 18.94 82.32 21.95 84.03 24.84C85.21 26.81 87.04 27.66 89.3 27.58C91.64 27.49 93.43 26.42 94.39 24.29C94.43 24.2 94.47 24.1 94.51 24.01Z" fill="#181818" fill-opacity="1.000000" fill-rule="nonzero"/>
		<path id="Vector" d="M162.41 29.87C161.36 29.87 160.45 29.95 159.57 29.84C159.11 29.74 158.69 29.48 158.4 29.11C156.89 27.23 155.35 25.37 154 23.38C153.15 22.14 152.17 21.95 150.79 22.3L150.79 29.76L147.47 29.76L147.47 9.96C150.87 10.16 154.3 10.1 157.65 10.63C159.99 11 161.27 13.1 161.38 15.43C161.52 18.22 160.47 20.12 158.19 21.22C157.75 21.44 157.3 21.63 156.73 21.89C157.77 23.2 158.83 24.44 159.77 25.76C160.67 27.04 162.11 28.01 162.41 29.87ZM150.83 19.27C152.57 19.14 154.15 19.12 155.7 18.88C157.17 18.65 158 17.55 158.04 16.14C158.08 14.73 157.29 13.57 155.79 13.34C154.17 13.1 152.51 13.16 150.83 13.07L150.83 19.27Z" fill="#181818" fill-opacity="1.000000" fill-rule="nonzero"/>
		<path id="Vector" d="M143.17 29.87C142.17 29.91 141.18 29.9 140.19 29.83C139.86 29.8 139.46 29.38 139.32 29.04C138.81 27.78 138.35 26.49 137.95 25.19C137.71 24.46 137.33 24.21 136.56 24.23C134.38 24.28 132.21 24.27 130.03 24.23C129.29 24.23 128.87 24.39 128.64 25.16C128.3 26.34 127.74 27.46 127.43 28.64C127.18 29.62 126.74 30.01 125.74 29.89C125.05 29.84 124.36 29.84 123.67 29.89C123.83 29.12 123.89 28.49 124.1 27.92C126.18 22.33 128.3 16.76 130.36 11.16C130.63 10.4 131 10.07 131.83 10.13C132.78 10.23 133.73 10.23 134.68 10.13C135.83 9.98 136.24 10.55 136.59 11.52C138.62 17.12 140.71 22.7 142.76 28.29C142.93 28.81 143.06 29.34 143.17 29.87ZM136.56 21.22C135.68 18.62 134.87 16.22 134.02 13.82C133.92 13.55 133.58 13.35 133.35 13.12C133.12 13.36 132.8 13.55 132.68 13.83C132.41 14.45 132.17 15.09 131.97 15.75C131.35 17.53 130.74 19.31 130.09 21.22L136.56 21.22Z" fill="#181818" fill-opacity="1.000000" fill-rule="nonzero"/>
		<path id="Vector" d="M238.81 29.87C237.68 29.87 236.73 29.93 235.8 29.83C235.53 29.81 235.18 29.4 235.06 29.09C234.57 27.87 234.1 26.62 233.73 25.37C233.48 24.56 233.14 24.19 232.23 24.22C230.05 24.29 227.87 24.28 225.7 24.22C224.94 24.2 224.57 24.42 224.34 25.17C223.85 26.73 223.25 28.25 222.7 29.83L219.4 29.83C219.46 29.29 219.56 28.76 219.71 28.24C221.81 22.62 223.95 17.01 226.01 11.39C226.36 10.41 226.82 10.02 227.85 10.13C229.15 10.25 230.75 9.79 231.66 10.4C232.52 10.98 232.68 12.63 233.12 13.83C234.89 18.55 236.64 23.28 238.38 28.01C238.56 28.62 238.7 29.24 238.81 29.87ZM225.79 21.15L232.26 21.15C231.37 18.56 230.55 16.12 229.68 13.7C229.6 13.47 229.26 13.17 229.06 13.18C228.92 13.22 228.8 13.29 228.69 13.38C228.59 13.48 228.5 13.6 228.45 13.73C227.56 16.16 226.71 18.59 225.79 21.15Z" fill="#181818" fill-opacity="1.000000" fill-rule="nonzero"/>
		<path id="Vector" d="M59.96 24.48L63.07 24.12C64.12 26.83 66.22 27.96 69.1 27.13C70.54 26.72 71.25 25.72 71.27 24.34C71.27 22.9 70.38 22.24 69.17 21.85C67.79 21.4 66.39 21.02 65.03 20.53C61.81 19.38 60.25 17.33 60.51 14.68C60.79 11.81 62.71 9.99 66.05 9.41C69.25 8.86 72.21 9.95 73.57 12.31C73.96 12.99 74.13 13.8 74.44 14.67L71.29 14.97C69.84 12.57 68.25 11.84 66.04 12.55C65 12.88 64.33 13.55 64.21 14.68C64.13 15.16 64.23 15.65 64.48 16.07C64.73 16.49 65.12 16.8 65.58 16.96C67.17 17.6 68.81 18.13 70.42 18.73C73.77 19.97 74.9 21.41 74.84 24.3C74.77 27.11 73.16 29.03 70.01 29.96C68.77 30.35 67.46 30.46 66.18 30.28C64.9 30.11 63.67 29.65 62.58 28.94C60.97 27.93 60.24 26.37 59.96 24.48Z" fill="#181818" fill-opacity="1.000000" fill-rule="nonzero"/>
		<path id="Vector" d="M198.55 14.69L195.35 14.96C193.97 12.58 192.27 11.73 190.11 12.61C189.36 12.92 188.65 13.81 188.35 14.6C187.97 15.59 188.62 16.47 189.57 16.91C190.6 17.37 191.68 17.73 192.74 18.12C193.55 18.41 194.37 18.66 195.17 18.98C197.2 19.82 198.78 21.05 198.92 23.52C199.05 26.16 198.01 28.1 195.69 29.36C192.11 31.27 186.99 30.28 185.03 27.26C184.82 26.96 184.65 26.64 184.51 26.3C184.31 25.75 184.18 25.18 183.97 24.5L187.16 24.12C188.47 26.93 190.83 28.04 193.35 27.09C194.63 26.61 195.34 25.7 195.33 24.3C195.33 22.94 194.49 22.26 193.32 21.87C191.96 21.43 190.55 21.05 189.19 20.55C185.87 19.37 184.29 17.31 184.56 14.63C184.89 11.72 186.89 9.78 190.28 9.4C193.13 9.08 195.85 9.47 197.56 12.23C198.01 12.93 198.19 13.78 198.55 14.69Z" fill="#181818" fill-opacity="1.000000" fill-rule="nonzero"/>
		<path id="Vector" d="M104.55 9.72L107.84 9.72C107.84 11.02 107.84 12.24 107.84 13.46C107.88 16.7 107.84 19.95 108.01 23.18C108.16 26.02 109.83 27.47 112.47 27.41C114.92 27.36 116.61 25.69 116.68 22.98C116.78 19.15 116.72 15.31 116.74 11.48C116.74 10.93 116.74 10.38 116.74 9.75L120.02 9.75C120.08 9.84 120.17 9.92 120.17 9.99C120.16 14.5 120.34 19.03 120.05 23.53C119.72 28.62 116.57 30.42 111.92 30.32C107.05 30.22 104.52 27.53 104.48 22.65C104.45 18.72 104.48 14.79 104.48 10.87C104.47 10.5 104.52 10.15 104.55 9.72Z" fill="#181818" fill-opacity="1.000000" fill-rule="nonzero"/>
		<path id="Vector" d="M166.74 29.79L166.74 10.19L179.39 10.19L179.39 13.12L170.17 13.12L170.17 18.28L178.7 18.28L178.7 21.29L170.14 21.29L170.14 26.84L179.5 26.84L179.5 29.8L166.74 29.79Z" fill="#181818" fill-opacity="1.000000" fill-rule="nonzero"/>
		<path id="Vector" d="M277 29.83L264.31 29.83L264.31 9.94L276.95 9.94L276.95 12.87L267.58 12.87L267.58 18.07L276.29 18.07L276.29 21.09L267.6 21.09L267.6 26.75L277.01 26.75L277 29.83Z" fill="#181818" fill-opacity="1.000000" fill-rule="nonzero"/>
		<path id="Vector" d="M207.59 22.29L207.59 29.8L204.16 29.8L204.16 10.39C207.52 10.39 210.87 10.15 214.16 10.46C217.03 10.73 218.64 13.12 218.68 16.21C218.72 19.13 217.05 21.3 214.2 21.89C213.14 22.1 212.06 22.23 210.98 22.27C209.91 22.34 208.83 22.29 207.59 22.29ZM207.7 13.18L207.7 19.38C209.39 19.3 210.98 19.32 212.54 19.13C214.24 18.93 215.17 17.8 215.17 16.21C215.17 14.61 214.15 13.36 212.45 13.21C210.88 13.08 209.31 13.18 207.7 13.18Z" fill="#181818" fill-opacity="1.000000" fill-rule="nonzero"/>
		<path id="Vector" d="M259.3 15.23C258.44 15.48 257.56 15.67 256.68 15.81C256.48 15.8 256.28 15.75 256.1 15.65C255.92 15.56 255.76 15.42 255.64 15.26C254.39 13.34 252.6 12.52 250.42 12.69C248.08 12.87 246.34 14.12 245.46 16.38C244.4 19.06 244.41 21.73 245.77 24.31C247.68 27.89 252.85 28.47 255.3 25.31C256.06 24.32 256.7 23.96 257.84 24.38C258.36 24.52 258.88 24.63 259.41 24.69C258.5 28.35 254.05 30.84 249.6 30.23C244.35 29.52 241 25.41 241.09 19.79C241.18 14.18 244.79 10.13 250.31 9.7C254.25 9.39 258.39 11.48 259.3 15.23Z" fill="#181818" fill-opacity="1.000000" fill-rule="nonzero"/>
		<path id="Vector" d="M37 4.18L34.59 6.44C34.37 6.24 34.07 5.98 33.79 5.7C31 2.95 27.87 2.96 25.08 5.78C20.42 10.51 15.78 15.24 11.15 19.99C10.8 20.42 10.48 20.88 10.21 21.36L7.23 18.46C10.63 15.18 13.98 11.99 17.3 8.75C19.11 6.98 20.87 5.13 22.65 3.32C27.07 -1.17 32.92 -0.86 37 4.18Z" fill="#181818" fill-opacity="1.000000" fill-rule="nonzero"/>
		<path id="Vector" d="M11.55 35.89C12.36 35.07 13.12 34.32 13.92 33.52C14.51 34.07 15.03 34.66 15.62 35.13C17.89 36.95 21.02 36.69 23.24 34.44C27.98 29.65 32.67 24.83 37.39 20.02C37.74 19.66 38.06 19.27 38.51 18.76L41 21.77C37.92 24.76 34.66 27.9 31.39 31.08C29.61 32.83 27.88 34.64 26.14 36.43C21.55 41.16 15.94 41 11.55 35.89Z" fill="#181818" fill-opacity="1.000000" fill-rule="nonzero"/>
	</g>
</svg>
