<svg width="90.000000" height="90.000000" viewBox="0 0 90 90" fill="none" xmlns="http://www.w3.org/2000/svg" xmlns:xlink="http://www.w3.org/1999/xlink">
	<desc>
			Created with Pixso.
	</desc>
	<defs>
		<clipPath id="clip1_8463">
			<rect id="TikTok - Negative" rx="0.000000" width="44.138821" height="44.138821" transform="translate(23.201136 23.201136)" fill="white" fill-opacity="0"/>
		</clipPath>
		<clipPath id="clip1_8462">
			<rect id="Frame 1321314846" rx="44.434116" width="88.868233" height="88.868233" transform="translate(0.565882 0.565882)" fill="white" fill-opacity="0"/>
		</clipPath>
	</defs>
	<rect id="Frame 1321314846" rx="44.434116" width="88.868233" height="88.868233" transform="translate(0.565882 0.565882)" fill="#954CED" fill-opacity="1.000000"/>
	<g clip-path="url(#clip1_8462)">
		<rect id="TikTok - Negative" rx="0.000000" width="44.138821" height="44.138821" transform="translate(23.201136 23.201136)" fill="#FFFFFF" fill-opacity="0"/>
		<g clip-path="url(#clip1_8463)">
			<path id="Vector" d="M54.83 22.63L47.2 22.63L47.2 53.47C47.2 57.14 44.27 60.16 40.62 60.16C36.97 60.16 34.03 57.14 34.03 53.47C34.03 49.86 36.9 46.91 40.42 46.77L40.42 39.03C32.66 39.16 26.4 45.53 26.4 53.47C26.4 61.47 32.79 67.9 40.68 67.9C48.57 67.9 54.96 61.41 54.96 53.47L54.96 37.65C57.83 39.75 61.35 41 65.07 41.07L65.07 33.32C59.33 33.13 54.83 28.4 54.83 22.63Z" fill="#FFFFFF" fill-opacity="1.000000" fill-rule="nonzero"/>
		</g>
	</g>
</svg>
