<svg width="90.000000" height="90.000000" viewBox="0 0 90 90" fill="none" xmlns="http://www.w3.org/2000/svg" xmlns:xlink="http://www.w3.org/1999/xlink">
	<desc>
			Created with Pixso.
	</desc>
	<defs>
		<clipPath id="clip1_8459">
			<rect id="Twitter - Original" rx="0.000000" width="44.138821" height="44.138821" transform="translate(23.201136 23.201136)" fill="white" fill-opacity="0"/>
		</clipPath>
		<clipPath id="clip1_8458">
			<rect id="Frame 1321314844" rx="44.434116" width="88.868233" height="88.868233" transform="translate(0.565882 0.565882)" fill="white" fill-opacity="0"/>
		</clipPath>
	</defs>
	<rect id="Frame 1321314844" rx="44.434116" width="88.868233" height="88.868233" transform="translate(0.565882 0.565882)" fill="#954CED" fill-opacity="1.000000"/>
	<g clip-path="url(#clip1_8458)">
		<g clip-path="url(#clip1_8459)">
			<path id="Vector" d="M36.87 63.66C53.95 63.66 63.29 49.5 63.29 37.23C63.29 36.83 63.29 36.43 63.27 36.03C65.08 34.72 66.65 33.09 67.9 31.22C66.21 31.97 64.41 32.47 62.57 32.68C64.51 31.52 65.96 29.7 66.65 27.55C64.83 28.63 62.83 29.39 60.75 29.8C59.35 28.31 57.5 27.33 55.48 27C53.46 26.67 51.39 27.01 49.59 27.97C47.79 28.94 46.36 30.47 45.51 32.33C44.67 34.19 44.46 36.28 44.92 38.27C41.23 38.09 37.62 37.13 34.32 35.46C31.02 33.78 28.11 31.44 25.78 28.57C24.59 30.61 24.23 33.03 24.76 35.34C25.3 37.64 26.69 39.65 28.66 40.97C27.18 40.92 25.73 40.52 24.44 39.8L24.44 39.92C24.44 42.07 25.18 44.14 26.54 45.8C27.9 47.46 29.79 48.6 31.89 49.03C30.53 49.4 29.09 49.45 27.7 49.19C28.29 51.03 29.45 52.65 31 53.8C32.56 54.96 34.44 55.6 36.38 55.64C34.45 57.15 32.25 58.27 29.89 58.93C27.53 59.59 25.06 59.78 22.63 59.49C26.88 62.21 31.82 63.66 36.87 63.65L36.87 63.66Z" fill="#FFFFFF" fill-opacity="1.000000" fill-rule="nonzero"/>
		</g>
	</g>
</svg>
