<svg width="126.000000" height="60.000000" viewBox="0 0 126 60" fill="none" xmlns="http://www.w3.org/2000/svg" xmlns:xlink="http://www.w3.org/1999/xlink">
	<desc>
			Created with Pixso.
	</desc>
	<defs>
		<clipPath id="clip1_8465">
			<rect id="Слой_1" rx="0.000000" width="125.000000" height="59.000000" transform="translate(0.500000 0.500000)" fill="white" fill-opacity="0"/>
		</clipPath>
	</defs>
	<g clip-path="url(#clip1_8465)">
		<path id="Vector" d="M21.54 59.99C21.01 59.91 20.47 59.85 19.95 59.74C17.56 59.21 15.85 57.81 14.96 55.53C13.64 52.18 13.55 48.74 14.72 45.34C15.75 42.33 18.27 40.58 21.42 40.54C22.39 40.52 23.35 40.61 24.3 40.82C26.9 41.43 28.58 43.14 29.37 45.66C30.33 48.73 30.33 51.85 29.29 54.9C28.27 57.9 26.16 59.63 22.97 59.91C22.85 59.93 22.73 59.96 22.61 59.99L21.54 59.99ZM19.1 50.08C19.28 51.48 19.38 52.7 19.62 53.9C19.79 54.77 20.34 55.43 21.26 55.67C22.67 56.02 23.91 55.27 24.33 53.76C24.75 52.21 24.87 50.61 24.7 49.02C24.6 48.09 24.4 47.17 24.11 46.29C24 45.89 23.77 45.54 23.46 45.27C23.15 45 22.77 44.83 22.36 44.77C21.1 44.56 20.12 45.1 19.74 46.46C19.4 47.68 19.28 48.96 19.1 50.08Z" fill="#181818" fill-opacity="1.000000" fill-rule="nonzero"/>
		<path id="Vector" d="M124.85 59.45C123.03 59.46 121.22 59.48 119.4 59.48C117.89 59.49 116.39 59.48 114.84 59.48L114.84 41.07C114.96 41.05 115.08 41.03 115.2 41.03C118.27 41.03 121.35 41.03 124.43 41.03C124.57 41.04 124.71 41.05 124.85 41.08L124.85 44.99L119.8 44.99L119.8 48.37L124.08 48.37L124.08 52.19L119.79 52.19L119.79 55.54L124.85 55.54L124.85 59.45Z" fill="#181818" fill-opacity="1.000000" fill-rule="nonzero"/>
		<path id="Vector" d="M110.06 60C109.32 59.87 108.56 59.8 107.84 59.62C106.06 59.17 104.47 58.19 103.26 56.8C102.06 55.41 101.31 53.69 101.1 51.86C100.87 49.92 100.9 48 101.68 46.2C103.23 42.64 106 40.78 109.82 40.56C110.99 40.5 112.18 40.67 113.39 40.74L113.39 45.24L111.8 44.96C108.33 44.36 106.5 46.96 106.3 49.47C106.21 50.51 106.28 51.54 106.64 52.52C107.4 54.64 109.37 55.81 111.65 55.48C112.21 55.4 112.78 55.28 113.42 55.16L113.42 59.55L111.04 59.99L110.06 60Z" fill="#181818" fill-opacity="1.000000" fill-rule="nonzero"/>
		<path id="Vector" d="M9.55 59.99C8.92 59.89 8.27 59.82 7.65 59.68C3.81 58.86 1.01 55.67 0.59 51.74C0.44 50.32 0.43 48.91 0.76 47.52C1.73 43.5 5.16 40.68 9.34 40.56C10.52 40.53 11.69 40.68 12.89 40.75L12.89 45.24C12.35 45.15 11.83 45.06 11.31 44.97C7.83 44.35 5.97 46.96 5.78 49.57C5.71 50.67 5.8 51.75 6.23 52.77C7.05 54.73 8.96 55.8 11.13 55.49C11.7 55.41 12.26 55.29 12.87 55.18L12.87 59.57L10.52 60L9.55 59.99Z" fill="#181818" fill-opacity="1.000000" fill-rule="nonzero"/>
		<path id="Vector" d="M68.3 32.99L70.87 39.36C70.51 39.16 70.28 39.05 70.06 38.92C66.71 37.05 63.37 35.16 60.01 33.31C59.64 33.11 59.22 33 58.8 33C50.61 32.98 42.43 32.98 34.24 32.99C31.14 32.99 28.71 31.01 28.11 27.95C28.04 27.52 28.01 27.09 28.03 26.65C28.02 19.93 28.07 13.21 28.01 6.49C27.97 3.13 30.32 0.78 32.79 0.31C33.27 0.21 33.75 0.16 34.24 0.15C51.96 0.14 69.68 0.14 87.4 0.15C90.47 0.15 92.88 2.07 93.53 5.07C93.65 5.69 93.71 6.32 93.69 6.96C93.71 13.37 93.71 19.78 93.7 26.2C93.7 27.78 93.44 29.29 92.42 30.59C91.19 32.15 89.58 32.98 87.62 32.98C81.45 33.01 75.28 32.99 69.11 32.99L68.3 32.99ZM44.98 17.76C45.03 17.82 45.06 17.84 45.07 17.87C45.1 17.95 45.13 18.04 45.15 18.12C46.16 21.39 47.4 24.55 49.47 27.29C50.09 28.11 50.76 28.92 51.56 29.55C52.98 30.67 54.58 29.97 54.91 28.19C54.94 27.9 54.95 27.61 54.94 27.32C54.94 26.03 54.85 24.74 54.97 23.46C55.18 21.05 55.45 18.65 55.82 16.26C56.31 13.08 56.91 9.92 58.36 6.99C58.79 6.15 58.68 5.29 58.07 4.56C57.42 3.78 56.57 3.47 55.55 3.71C54.8 3.88 54.36 4.4 54.02 5.05C52.44 8.17 51.75 11.54 51.19 14.96C50.95 16.39 50.79 17.83 50.57 19.37C50.48 19.14 50.42 19.02 50.38 18.88C49.77 16.75 49.15 14.61 48.57 12.47C48.31 11.52 48.2 10.51 47.88 9.58C47.34 8.02 45.59 7.7 44.46 8.91C44.19 9.22 43.95 9.56 43.76 9.93C42.63 12.07 41.52 14.22 40.4 16.37C39.61 17.87 38.83 19.37 38.02 20.91C37.97 20.81 37.93 20.71 37.9 20.61C37.07 16.14 36.23 11.67 35.4 7.2C35.25 6.38 35.18 5.5 34.34 5.06C33.4 4.56 32.44 4.64 31.58 5.24C30.78 5.8 30.56 6.66 30.71 7.6C31.15 10.29 31.54 12.99 32.09 15.66C32.84 19.26 33.69 22.85 34.58 26.42C34.82 27.4 35.27 28.36 35.77 29.25C36.31 30.18 37.18 30.33 38.03 29.67C38.6 29.23 39.18 28.69 39.54 28.08C40.62 26.25 41.62 24.36 42.61 22.48C43.43 20.93 44.19 19.35 44.98 17.76ZM90.46 15.29C90.43 13.96 90.26 12.62 89.8 11.33C88.74 8.36 86.36 6.59 83.4 6.57C80.91 6.55 79.03 7.71 77.59 9.67C75.24 12.89 74.42 16.52 74.96 20.44C75.22 22.34 75.95 24.08 77.39 25.41C80.17 27.96 84.61 27.63 87.13 24.67C89.4 21.99 90.38 18.82 90.46 15.29ZM65.05 27.12C65.39 27.1 65.73 27.1 66.07 27.05C68.2 26.73 69.75 25.52 70.95 23.79C72.28 21.89 73.13 19.69 73.42 17.39C73.7 15.24 73.61 13.14 72.84 11.1C70.94 5.99 64.67 5.14 61.51 8.77C58.02 12.78 57.03 17.43 58.66 22.51C59.62 25.49 62.06 27.1 65.05 27.12Z" fill="#181818" fill-opacity="1.000000" fill-rule="nonzero"/>
		<path id="Vector" d="M36.35 47.12C35.94 51.22 35.53 55.32 35.12 59.45L30.44 59.45C31.21 53.32 31.99 47.2 32.77 41.06L39.05 41.06C39.74 44.37 40.42 47.7 41.13 51.11C41.44 49.54 41.72 48.04 42.05 46.56C42.42 44.84 42.83 43.14 43.24 41.43C43.27 41.28 43.48 41.04 43.61 41.04C45.62 41.02 47.64 41.03 49.72 41.03C50.55 47.17 51.37 53.3 52.2 59.48L48.76 59.48C47.29 59.48 47.29 59.48 47.14 58.01C46.77 54.39 46.4 50.77 45.95 47.13C45.91 47.26 45.86 47.39 45.82 47.53C44.89 51.36 43.97 55.19 43.05 59.02C42.96 59.38 42.83 59.5 42.48 59.49C41.68 59.47 40.89 59.46 40.1 59.49C39.71 59.51 39.54 59.39 39.45 58.99C38.5 55.15 37.52 51.31 36.55 47.47C36.52 47.35 36.48 47.24 36.45 47.12L36.35 47.12Z" fill="#181818" fill-opacity="1.000000" fill-rule="nonzero"/>
		<path id="Vector" d="M58.77 47.09C58.36 51.19 57.95 55.29 57.53 59.44L52.86 59.44C53.01 58.19 53.16 56.96 53.32 55.74C53.84 51.57 54.37 47.4 54.9 43.24C54.97 42.64 55.06 42.05 55.12 41.46C55.14 41.15 55.24 41.02 55.58 41.02C57.39 41.04 59.21 41.05 61.03 41.02C61.5 41.01 61.5 41.31 61.56 41.59C62.18 44.62 62.8 47.65 63.42 50.68C63.43 50.73 63.45 50.78 63.47 50.82C63.5 50.86 63.54 50.89 63.59 50.92C63.78 49.92 63.95 48.92 64.17 47.92C64.64 45.77 65.14 43.62 65.62 41.47C65.7 41.11 65.85 41.02 66.2 41.02C68.02 41.04 69.83 41.04 71.65 41.02C72.01 41.02 72.13 41.12 72.18 41.5C72.95 47.29 73.72 53.08 74.51 58.88C74.54 59.05 74.54 59.23 74.55 59.45L69.69 59.45C69.25 55.34 68.82 51.23 68.4 47.11L68.31 47.11C67.32 51.22 66.33 55.33 65.34 59.49C64.28 59.49 63.26 59.5 62.24 59.47C62.11 59.47 61.93 59.21 61.89 59.04C61.27 56.66 60.68 54.27 60.08 51.89L58.87 47.11L58.77 47.09Z" fill="#181818" fill-opacity="1.000000" fill-rule="nonzero"/>
		<path id="Vector" d="M92.44 59.45L87.51 59.45L87.51 41.09C87.56 41.07 87.61 41.05 87.67 41.04C90.2 41.08 92.74 41.09 95.27 41.2C96.42 41.26 97.5 41.71 98.48 42.36C101.66 44.48 101.51 49.06 98.2 50.96C98.09 51.02 97.98 51.08 97.8 51.18C99.09 53.92 100.39 56.65 101.72 59.46C101.48 59.47 101.31 59.49 101.14 59.49C99.78 59.49 98.41 59.47 97.04 59.5C96.64 59.5 96.44 59.38 96.27 59.01C95.12 56.56 93.94 54.11 92.78 51.67C92.7 51.5 92.59 51.34 92.44 51.23L92.44 59.45ZM92.43 49.06C93.18 48.9 93.88 48.8 94.55 48.59C95.22 48.39 95.63 47.88 95.67 47.15C95.71 46.39 95.58 45.66 94.9 45.18C94.17 44.66 93.31 44.63 92.43 44.6L92.43 49.06Z" fill="#181818" fill-opacity="1.000000" fill-rule="nonzero"/>
		<path id="Vector" d="M85.35 48.35C85.35 49.57 85.35 50.69 85.35 51.81C85.35 51.92 85.33 52.03 85.33 52.18L81.01 52.18L81.01 55.57L86 55.57C86.03 55.72 86.05 55.87 86.06 56.03C86.06 57.04 86.06 58.06 86.06 59.07C86.06 59.32 86.06 59.53 85.71 59.53C82.52 59.52 79.34 59.52 76.16 59.51C76.14 59.51 76.13 59.49 76.06 59.45L76.06 41.11L85.97 41.11L85.97 44.99L81 44.99L81 48.35L85.35 48.35Z" fill="#181818" fill-opacity="1.000000" fill-rule="nonzero"/>
		<path id="Vector" d="M85.76 15.26C85.72 17.49 85.33 19.24 84.18 20.72C83.77 21.24 83.26 21.68 82.69 22.02C81.78 22.56 80.92 22.31 80.38 21.4C79.6 20.11 79.35 18.7 79.5 17.19C79.67 15.47 80.33 13.84 81.41 12.5C81.67 12.18 81.97 11.89 82.31 11.66C83.28 10.99 84.29 11.22 84.9 12.23C85.53 13.27 85.8 14.42 85.76 15.26Z" fill="#181818" fill-opacity="1.000000" fill-rule="nonzero"/>
		<path id="Vector" d="M68.9 15.65C68.83 17.57 68.43 19.38 67.18 20.89C66.8 21.33 66.36 21.71 65.87 22C64.95 22.55 64.07 22.31 63.5 21.4C62.68 20.09 62.48 18.63 62.63 17.13C62.78 15.48 63.41 13.91 64.45 12.62C64.74 12.24 65.1 11.9 65.49 11.63C66.43 11 67.41 11.23 68 12.19C68.64 13.23 68.95 14.43 68.9 15.65Z" fill="#181818" fill-opacity="1.000000" fill-rule="nonzero"/>
	</g>
</svg>
