<svg width="72.000000" height="86.039726" viewBox="0 0 72 86.0397" fill="none" xmlns="http://www.w3.org/2000/svg" xmlns:xlink="http://www.w3.org/1999/xlink">
	<desc>
			Created with Pixso.
	</desc>
	<defs/>
	<g opacity="0.700000">
		<path id="Vector 288" d="M39.99 83.51C35.29 86.42 29.13 84.97 26.22 80.27L6 47.58C3.09 42.88 4.54 36.72 9.24 33.81L13.5 31.18L20.8 26.66L28.09 22.15L34.7 18.06L34.7 18.06C38.35 15.8 43.15 16.93 45.41 20.58L66.8 55.17C69.71 59.86 68.26 66.03 63.56 68.93L39.99 83.51Z" fill="#2FDBBC" fill-opacity="1.000000" fill-rule="evenodd"/>
		<path id="Vector 288" d="M26.22 80.27C29.13 84.97 35.29 86.42 39.99 83.51L63.56 68.93C68.26 66.03 69.71 59.86 66.8 55.17L45.41 20.58C43.15 16.93 38.35 15.8 34.7 18.06L28.09 22.15L20.8 26.66L13.5 31.18L9.24 33.81C4.54 36.72 3.09 42.88 6 47.58L26.22 80.27ZM13.5 31.18C11.14 26.34 8.1 15.73 14.9 12.03C21.69 8.33 26.52 17.24 28.09 22.15M20.8 26.66C16.72 20.2 10.09 6.47 16.2 3.28C22.32 0.09 31.08 11.8 34.7 18.06" stroke="#2FDBBC" stroke-opacity="1.000000" stroke-width="2.000000" stroke-linejoin="round"/>
	</g>
</svg>
