<svg width="93.000000" height="122.018051" viewBox="0 0 93 122.018" fill="none" xmlns="http://www.w3.org/2000/svg" xmlns:xlink="http://www.w3.org/1999/xlink">
	<desc>
			Created with Pixso.
	</desc>
	<defs/>
	<g opacity="0.700000">
		<path id="Vector 287" d="M52.76 120.32C57.92 122.29 63.7 119.72 65.68 114.56L87.67 57.18C89.65 52.02 87.07 46.24 81.91 44.26L71.71 40.35L60.55 36.07L49.39 31.79L39.27 27.91L38.49 27.61C33.33 25.64 27.55 28.21 25.57 33.37L3.57 90.75C1.6 95.91 4.18 101.69 9.33 103.67L52.76 120.32Z" fill="#FFAA4C" fill-opacity="1.000000" fill-rule="evenodd"/>
		<path id="Vector 287" d="M65.68 114.56C63.7 119.72 57.92 122.29 52.76 120.32L9.33 103.67C4.18 101.69 1.6 95.91 3.57 90.75L25.57 33.37C27.55 28.21 33.33 25.64 38.49 27.61L39.27 27.91L49.39 31.79L60.55 36.07L71.71 40.35L81.91 44.26C87.07 46.24 89.65 52.02 87.67 57.18L65.68 114.56ZM71.71 40.35C73.69 33.1 75.08 17.79 64.82 14.5C54.56 11.2 50.25 24.65 49.39 31.79M60.55 36.07C64.45 26.16 69.95 5.64 60.75 2.86C51.55 0.08 42.59 18.4 39.27 27.91" stroke="#FFAA4C" stroke-opacity="1.000000" stroke-width="2.000000" stroke-linejoin="round"/>
	</g>
</svg>
