<svg width="128.420898" height="179.475723" viewBox="0 0 128.421 179.476" fill="none" xmlns="http://www.w3.org/2000/svg" xmlns:xlink="http://www.w3.org/1999/xlink">
	<desc>
			Created with Pixso.
	</desc>
	<defs/>
	<g opacity="0.700000">
		<path id="Vector 285" d="M88.68 42.61C94.1 41.24 99.6 44.58 100.88 50.02L121.54 137.93C122.63 142.52 120.34 147.25 116.07 149.26L71.29 170.36C69.58 171.16 67.68 171.47 65.81 171.24L44.05 168.58C39.86 168.06 36.44 164.97 35.51 160.85L15.29 71.29C14.09 66 17.33 60.72 22.58 59.39L29.85 57.55L46.56 53.31L60.95 49.65L75.34 46L88.68 42.61Z" fill="#A64CED" fill-opacity="1.000000" fill-rule="evenodd"/>
		<path id="Vector 285" d="M121.54 137.93C122.63 142.52 120.34 147.25 116.07 149.26L71.29 170.36C69.58 171.16 67.68 171.47 65.81 171.24L44.05 168.58C39.86 168.06 36.44 164.97 35.51 160.85L15.29 71.29C14.09 66 17.33 60.72 22.58 59.39L29.85 57.55L46.56 53.31L60.95 49.65L75.34 46L88.68 42.61C94.1 41.24 99.6 44.58 100.88 50.02L121.54 137.93ZM46.56 53.31C44.43 44.92 42.97 27.46 54.11 24.63C65.25 21.8 72.9 37.7 75.34 46M60.95 49.65C56.98 36.68 45.92 11.49 33.42 14.55C20.92 17.62 25.83 44.49 29.85 57.55" stroke="#A64CED" stroke-opacity="1.000000" stroke-width="2.000000" stroke-linejoin="round"/>
		<path id="Vector 291" d="M55.93 120.2L44.84 80.33M67.02 160.06L61.48 140.13" stroke="#FFFFFF" stroke-opacity="1.000000" stroke-width="2.000000" stroke-linejoin="round" stroke-linecap="round"/>
	</g>
</svg>
